<?xml version="1.0" encoding="UTF-8" standalone="no"?>
<svg xmlns="http://www.w3.org/2000/svg" xmlns:xlink="http://www.w3.org/1999/xlink">
	<g id="college">
		<svg version="1.1" id="Layer_1" xmlns="http://www.w3.org/2000/svg" xmlns:xlink="http://www.w3.org/1999/xlink" x="0px" y="0px"
	 width="300px" height="243px" viewBox="0 0 300 243" enable-background="new 0 0 300 243" xml:space="preserve">
<g>
	
		<linearGradient id="SVGID_1_" gradientUnits="userSpaceOnUse" x1="45.8926" y1="187.4453" x2="45.8926" y2="112.0747" gradientTransform="matrix(0.9996 0.0281 -0.0281 0.9996 1.5092 15.4457)">
		<stop  offset="0" style="stop-color:#0A4123"/>
		<stop  offset="1" style="stop-color:#98C93C"/>
	</linearGradient>
	<path fill="url(#SVGID_1_)" d="M80.901,174.115c0.75-2.057,1.204-4.27,1.274-6.588c0.317-11.313-8.384-20.729-19.433-21.037
		c-2.55-0.068-4.995,0.363-7.268,1.197c-0.639-10.453-8.96-18.861-19.389-19.152c-11.048-0.311-20.255,8.613-20.571,19.928
		c-0.131,4.658,1.288,8.969,3.745,12.494c-9.544,1.314-17.041,9.529-17.328,19.709c-0.315,11.313,8.378,20.742,19.429,21.051
		c7.674,0.205,14.452-4.031,17.995-10.428c0.436,0.037,0.866,0.086,1.309,0.098c1.362,0.037,2.697-0.064,3.995-0.297
		c2.688,7.732,9.769,13.359,18.268,13.6c11.043,0.311,20.258-8.615,20.575-19.926C83.613,180.893,82.641,177.26,80.901,174.115z"/>
	<linearGradient id="SVGID_2_" gradientUnits="userSpaceOnUse" x1="47.1528" y1="201.2246" x2="47.1528" y2="149.4736">
		<stop  offset="0" style="stop-color:#001A00"/>
		<stop  offset="1" style="stop-color:#98C93C"/>
	</linearGradient>
	<path fill="url(#SVGID_2_)" d="M67.996,156.686c-1.634,0-3.151,0.457-4.451,1.254c-0.33-1.02-0.804-2.033-1.426-2.973
		c-3.78-5.721-11.591-7.215-17.443-3.334c-2.404,1.588-4.098,3.852-5.001,6.346c-4.073-4.373-10.913-5.248-16.18-1.764
		c-5.857,3.881-7.532,11.641-3.753,17.363c2.627,3.975,7.193,5.895,11.701,5.42c0.136,0.221,0.265,0.461,0.416,0.693
		c0.467,0.701,0.999,1.352,1.578,1.928c-2.96,4.115-3.297,9.715-0.391,14.109c3.781,5.719,11.593,7.215,17.442,3.348
		c2.009-1.334,3.506-3.119,4.482-5.125c1.312-0.35,2.597-0.908,3.795-1.703c5.849-3.865,7.53-11.641,3.752-17.363
		c-0.875-1.314-1.974-2.4-3.201-3.258c0.579-0.453,1.097-0.965,1.58-1.504c1.542,2.279,4.147,3.773,7.101,3.773
		c4.745,0,8.589-3.85,8.589-8.611C76.585,160.535,72.741,156.686,67.996,156.686z"/>
	<linearGradient id="SVGID_3_" gradientUnits="userSpaceOnUse" x1="41.9307" y1="196.418" x2="41.9307" y2="174.6055">
		<stop  offset="0" style="stop-color:#0A4123"/>
		<stop  offset="1" style="stop-color:#002500"/>
	</linearGradient>
	<path fill="url(#SVGID_3_)" d="M54.362,181.955c0-4.055-3.413-7.35-7.619-7.35c-3.326,0-6.148,2.076-7.181,4.936
		c-0.768-0.24-1.595-0.393-2.454-0.393c-4.206,0-7.608,3.283-7.608,7.336c0,4.055,3.402,7.354,7.608,7.354
		c0.765,0,1.506-0.121,2.203-0.328c1.393,1.777,3.586,2.908,6.061,2.908c4.203,0,7.606-3.281,7.606-7.336
		c0-0.844-0.152-1.637-0.421-2.395C53.681,185.414,54.362,183.76,54.362,181.955z"/>
	
		<linearGradient id="SVGID_4_" gradientUnits="userSpaceOnUse" x1="-204.5103" y1="570.1865" x2="-204.5103" y2="543.6523" gradientTransform="matrix(0.7325 -0.6807 0.6807 0.7325 -213.2676 -356.9841)">
		<stop  offset="0" style="stop-color:#0A4123"/>
		<stop  offset="1" style="stop-color:#98C93C"/>
	</linearGradient>
	<path fill="url(#SVGID_4_)" d="M15.722,183.01c-0.275,0.256-0.515,0.531-0.748,0.813c-3.196-3.041-8.186-3.178-11.387-0.207
		c-3.331,3.102-3.463,8.371-0.293,11.783c1.814,1.959,4.317,2.869,6.753,2.707c-0.639,2.027-0.186,4.357,1.392,6.059
		c2.308,2.49,6.145,2.666,8.574,0.408c1.968-1.828,2.398-4.713,1.249-7.061c2.129,0.109,4.275-0.607,5.934-2.146
		c3.332-3.1,3.462-8.371,0.294-11.785C24.318,180.182,19.052,179.924,15.722,183.01z"/>
	<linearGradient id="SVGID_5_" gradientUnits="userSpaceOnUse" x1="72.749" y1="205.1172" x2="72.749" y2="177.9336">
		<stop  offset="0" style="stop-color:#0A4123"/>
		<stop  offset="1" style="stop-color:#98C93C"/>
	</linearGradient>
	<path fill="url(#SVGID_5_)" d="M81.321,191.533c2.293-1.219,3.861-3.619,3.861-6.387c0-3.984-3.228-7.213-7.197-7.213
		c-3.972,0-7.192,3.229-7.192,7.213c0,0.154,0.012,0.318,0.022,0.469c-0.992-0.506-2.117-0.801-3.306-0.801
		c-3.973,0-7.194,3.229-7.194,7.199c0,3.986,3.221,7.213,7.194,7.213c1.191,0,2.315-0.297,3.308-0.814
		c0.263,3.746,3.365,6.705,7.167,6.705c3.969,0,7.197-3.229,7.197-7.199C85.182,195.137,83.615,192.734,81.321,191.533z"/>
	
		<linearGradient id="SVGID_6_" gradientUnits="userSpaceOnUse" x1="15.1919" y1="-80.6958" x2="6.7215" y2="-97.8852" gradientTransform="matrix(0.897 0.442 -0.442 0.897 -18.9668 252.3313)">
		<stop  offset="0" style="stop-color:#0A4123"/>
		<stop  offset="1" style="stop-color:#98C93C"/>
	</linearGradient>
	<path fill="url(#SVGID_6_)" d="M35.059,178.18c1.915-0.049,3.748-1.135,4.654-2.975c1.304-2.66,0.224-5.857-2.422-7.152
		c-2.639-1.311-5.837-0.215-7.142,2.428c-0.049,0.117-0.09,0.221-0.138,0.322c-0.487-0.662-1.134-1.225-1.929-1.609
		c-2.638-1.311-5.836-0.217-7.141,2.426c-1.303,2.645-0.215,5.846,2.424,7.152c0.79,0.387,1.634,0.564,2.463,0.547
		c-1.06,2.576,0.039,5.553,2.564,6.795c2.637,1.297,5.835,0.217,7.14-2.428C36.444,181.834,36.189,179.727,35.059,178.18z"/>
	<linearGradient id="SVGID_7_" gradientUnits="userSpaceOnUse" x1="50.2153" y1="208.166" x2="28.7432" y2="212.3558">
		<stop  offset="0" style="stop-color:#3B2314"/>
		<stop  offset="1" style="stop-color:#754C28"/>
	</linearGradient>
	<path fill="url(#SVGID_7_)" d="M46.987,213.25c0.06-2.025,0.067-3.607-0.104-6.154c5.68-1.957,8.979-17.682,8.979-17.682
		c-4.278,9.197-7.711,13.906-9.484,14.404c-0.203-1.984-0.451-6.676-0.56-8.646c-0.1-1.75-0.207-3.4-0.439-4.756
		c-0.361-2.158,0.727-11.818-0.236-12.725c0,0-1.783,14.143-2.532,12.563c-2.344-4.91-3.621-5.65-6.406-9.807
		c-0.345-0.52,6.414,13.787,6.346,14.598c-0.284,3.225-0.65,7.9-1.104,14.67c-2.116-1.176-5.339-3.471-7.119-4.992
		c1.226-4.178-2.717-12.395-2.717-12.395c0.118,4.436,1.819,10.32,1.017,10.869c-1.735-2.059-10.42-8.564-12.47-11.234
		c0,0,12.146,15.953,20.971,22.109c-0.412,5.18-0.572,13.703-0.789,15.361c-0.444,3.459-1.125,7.441-1.828,10.471H48.81
		c-0.178-1.492-0.551-2.924-0.584-4.533c-0.07-3.186-0.163-14.398-0.529-16.635c12.826-6.381,23.596-21.746,23.596-21.746
		C62.08,206.004,50.816,212.949,46.987,213.25z"/>
</g>
<linearGradient id="SVGID_8_" gradientUnits="userSpaceOnUse" x1="210.873" y1="239.8965" x2="211.394" y2="222.4492">
	<stop  offset="0" style="stop-color:#5A5B5D"/>
	<stop  offset="0.3107" style="stop-color:#57585A"/>
	<stop  offset="0.5406" style="stop-color:#4F4F51"/>
	<stop  offset="0.7446" style="stop-color:#403F41"/>
	<stop  offset="0.9324" style="stop-color:#2C292A"/>
	<stop  offset="1" style="stop-color:#231F20"/>
</linearGradient>
<polygon fill="url(#SVGID_8_)" points="261.323,225.889 160.941,222.441 160.941,239.904 261.323,239.904 "/>
<linearGradient id="SVGID_9_" gradientUnits="userSpaceOnUse" x1="54.5894" y1="113.3467" x2="160.9414" y2="113.3467">
	<stop  offset="0" style="stop-color:#E2E3E4"/>
	<stop  offset="1" style="stop-color:#EEEFEF"/>
</linearGradient>
<polygon fill="url(#SVGID_9_)" points="54.589,226.082 160.941,222.441 160.941,0.611 54.589,50.611 54.589,72.349 57.042,74.695 
	57.042,99.942 54.589,101.396 54.589,123.297 57.042,125.133 57.042,150.348 54.589,152.23 54.589,174.916 57.042,175.572 
	57.042,200.779 54.589,201.82 "/>
<linearGradient id="SVGID_10_" gradientUnits="userSpaceOnUse" x1="160.9414" y1="113.3467" x2="267.2773" y2="113.3467">
	<stop  offset="0" style="stop-color:#929497"/>
	<stop  offset="1" style="stop-color:#DBDCDD"/>
</linearGradient>
<polygon fill="url(#SVGID_10_)" points="267.277,50.611 160.941,0.611 160.941,222.441 267.277,226.082 267.277,201.902 
	265.288,200.836 265.288,175.641 267.277,175.123 267.277,151.699 265.288,150.447 265.288,125.266 267.277,123.678 
	267.277,101.396 265.288,100.077 265.288,74.891 267.277,72.88 "/>
<linearGradient id="SVGID_11_" gradientUnits="userSpaceOnUse" x1="166.5732" y1="66.2017" x2="347.9267" y2="66.2017">
	<stop  offset="0" style="stop-color:#243841"/>
	<stop  offset="1" style="stop-color:#7296A8"/>
</linearGradient>
<polygon fill="url(#SVGID_11_)" points="265.288,74.891 160.941,32.326 160.941,64.012 265.288,100.077 "/>
<linearGradient id="SVGID_12_" gradientUnits="userSpaceOnUse" x1="160.9414" y1="123.0732" x2="351.5525" y2="123.0732">
	<stop  offset="0" style="stop-color:#243841"/>
	<stop  offset="1" style="stop-color:#7296A8"/>
</linearGradient>
<polygon fill="url(#SVGID_12_)" points="265.288,125.266 160.941,95.699 160.941,127.381 265.288,150.447 "/>
<linearGradient id="SVGID_13_" gradientUnits="userSpaceOnUse" x1="160.9414" y1="179.9512" x2="361.3141" y2="179.9512">
	<stop  offset="0" style="stop-color:#243841"/>
	<stop  offset="1" style="stop-color:#7296A8"/>
</linearGradient>
<polygon fill="url(#SVGID_13_)" points="265.288,175.641 160.941,159.066 160.941,190.754 265.288,200.836 "/>
<linearGradient id="SVGID_14_" gradientUnits="userSpaceOnUse" x1="57.0425" y1="179.9229" x2="208.5863" y2="179.9229">
	<stop  offset="0" style="stop-color:#7296A8"/>
	<stop  offset="1" style="stop-color:#243841"/>
</linearGradient>
<polygon fill="url(#SVGID_14_)" points="57.042,175.572 57.042,200.779 160.941,190.754 160.941,159.066 "/>
<linearGradient id="SVGID_15_" gradientUnits="userSpaceOnUse" x1="57.0425" y1="123.0234" x2="211.3542" y2="123.0234">
	<stop  offset="0" style="stop-color:#7296A8"/>
	<stop  offset="1" style="stop-color:#243841"/>
</linearGradient>
<polygon fill="url(#SVGID_15_)" points="57.042,125.133 57.042,150.348 160.941,127.381 160.941,95.699 "/>
<linearGradient id="SVGID_16_" gradientUnits="userSpaceOnUse" x1="57.0425" y1="66.1343" x2="218.3892" y2="66.1343">
	<stop  offset="0" style="stop-color:#7296A8"/>
	<stop  offset="1" style="stop-color:#243841"/>
</linearGradient>
<polygon fill="url(#SVGID_16_)" points="57.042,74.695 57.042,99.942 160.941,64.045 160.941,32.326 "/>
<linearGradient id="SVGID_17_" gradientUnits="userSpaceOnUse" x1="111.8394" y1="239.8311" x2="111.3387" y2="222.3822">
	<stop  offset="0" style="stop-color:#909295"/>
	<stop  offset="0.3448" style="stop-color:#69696C"/>
	<stop  offset="0.7617" style="stop-color:#403E40"/>
	<stop  offset="0.9732" style="stop-color:#302D2F"/>
	<stop  offset="1" style="stop-color:#231F20"/>
</linearGradient>
<polygon fill="url(#SVGID_17_)" points="62.241,225.818 160.941,222.441 160.941,239.904 62.241,239.904 "/>
<polygon fill="#FFFFFF" points="54.589,101.396 57.042,99.942 160.941,64.045 265.288,100.077 267.277,101.396 162.756,66.846 
	162.045,92.062 160.941,91.723 159.663,92.101 159.091,66.964 "/>
<polygon fill="#FFFFFF" points="54.589,152.23 57.042,150.348 160.941,127.381 265.288,150.447 267.277,151.699 162.756,130.57 
	162.329,156.254 160.941,156.016 159.522,156.254 159.091,130.67 "/>
<polygon fill="#FFFFFF" points="54.589,201.82 57.042,200.779 160.941,190.754 265.288,200.836 267.277,201.902 162.756,194.6 
	162.716,222.498 160.941,222.441 160.055,222.471 159.091,194.729 "/>
<polygon fill="#434345" points="57.042,125.133 54.589,123.297 160.941,91.723 267.277,123.678 265.288,125.266 160.941,95.699 "/>
<polygon fill="#434345" points="57.042,175.572 54.589,174.916 160.941,156.016 267.277,175.123 265.288,175.641 160.941,159.066 
	"/>
<polygon fill="#FFFFFF" points="159.028,28.265 160.941,27.465 162.787,28.252 163.593,1.861 160.941,0.611 157.94,2.019 "/>
<polygon fill="#434345" points="57.042,74.695 54.589,72.349 160.941,27.465 267.277,72.88 265.288,74.891 160.941,32.326 "/>
<linearGradient id="SVGID_18_" gradientUnits="userSpaceOnUse" x1="92.0581" y1="214.8311" x2="127.9961" y2="178.8931">
	<stop  offset="0" style="stop-color:#BBBDBF"/>
	<stop  offset="1" style="stop-color:#545456"/>
</linearGradient>
<polygon fill="url(#SVGID_18_)" points="119.75,223.857 101.7,224.473 101.7,168.469 119.75,170.646 "/>
<linearGradient id="SVGID_19_" gradientUnits="userSpaceOnUse" x1="136.3481" y1="223.8574" x2="136.3481" y2="160.3301">
	<stop  offset="0" style="stop-color:#BBBDBF"/>
	<stop  offset="1" style="stop-color:#7A7C7F"/>
</linearGradient>
<polygon fill="url(#SVGID_19_)" points="152.946,160.33 119.75,165.613 119.75,223.857 152.946,222.717 "/>
<linearGradient id="SVGID_20_" gradientUnits="userSpaceOnUse" x1="135.0005" y1="178.4521" x2="157.9771" y2="218.2487">
	<stop  offset="0" style="stop-color:#231F20"/>
	<stop  offset="1" style="stop-color:#626366"/>
</linearGradient>
<polygon fill="url(#SVGID_20_)" points="152.946,174.1 139.477,175.867 139.477,221.641 152.946,221.152 "/>
<polygon fill="#434345" points="152.946,160.33 144.161,158.992 95.307,167.678 101.7,168.469 119.75,170.646 152.946,165.742 "/>
<polygon fill="#FFFFFF" points="101.7,168.469 101.7,224.473 100.577,224.443 99.46,198.781 99.46,196.686 99.46,168.836 "/>
<linearGradient id="SVGID_21_" gradientUnits="userSpaceOnUse" x1="118.5435" y1="180.1797" x2="141.2017" y2="219.4249">
	<stop  offset="0" style="stop-color:#231F20"/>
	<stop  offset="1" style="stop-color:#626366"/>
</linearGradient>
<polygon fill="url(#SVGID_21_)" points="121.957,178.209 121.957,222.32 137.167,221.754 137.167,176.209 "/>
<g>
	<path fill-rule="evenodd" clip-rule="evenodd" fill="#E6E7E8" d="M140.856,200.695c0-0.699-0.707-1.232-1.417-1.232
		c-0.699,0-1.234,0.533-1.234,1.232c0,0.717,0.535,1.416,1.234,1.416C140.149,202.111,140.856,201.412,140.856,200.695z"/>
	
		<linearGradient id="SVGID_22_" gradientUnits="userSpaceOnUse" x1="9.3828" y1="91.248" x2="11.5423" y2="90.5878" gradientTransform="matrix(0 -1 1 0 48.4434 210.9189)">
		<stop  offset="0" style="stop-color:#0094D9"/>
		<stop  offset="0.32" style="stop-color:#E6E7E8"/>
		<stop  offset="1" style="stop-color:#0094D9"/>
	</linearGradient>
	<path fill-rule="evenodd" clip-rule="evenodd" fill="url(#SVGID_22_)" d="M140.33,200.695c0-0.35-0.356-0.883-0.891-0.883
		c-0.523,0-0.88,0.533-0.88,0.883c0,0.531,0.357,0.883,0.88,0.883C139.974,201.578,140.33,201.227,140.33,200.695z"/>
</g>
<g>
	<path fill-rule="evenodd" clip-rule="evenodd" fill="#E6E7E8" d="M138.492,200.846c0-0.713-0.707-1.246-1.415-1.246
		c-0.707,0-1.236,0.533-1.236,1.246c0,0.703,0.529,1.402,1.236,1.402C137.785,202.248,138.492,201.549,138.492,200.846z"/>
	
		<linearGradient id="SVGID_23_" gradientUnits="userSpaceOnUse" x1="9.2319" y1="88.8833" x2="11.3902" y2="88.2234" gradientTransform="matrix(0 -1 1 0 48.4434 210.9189)">
		<stop  offset="0" style="stop-color:#0094D9"/>
		<stop  offset="0.32" style="stop-color:#E6E7E8"/>
		<stop  offset="1" style="stop-color:#0094D9"/>
	</linearGradient>
	<path fill-rule="evenodd" clip-rule="evenodd" fill="url(#SVGID_23_)" d="M137.961,200.846c0-0.363-0.35-0.881-0.884-0.881
		c-0.525,0-0.882,0.518-0.882,0.881c0,0.52,0.357,0.885,0.882,0.885C137.611,201.73,137.961,201.365,137.961,200.846z"/>
</g>
<polygon fill="#434345" points="131.069,157.02 80.357,165.791 101.7,168.469 152.946,160.33 "/>
<linearGradient id="SVGID_24_" gradientUnits="userSpaceOnUse" x1="131.0688" y1="155.8252" x2="144.1611" y2="155.8252">
	<stop  offset="0" style="stop-color:#DBDCDD"/>
	<stop  offset="1" style="stop-color:#929497"/>
</linearGradient>
<polygon fill="url(#SVGID_24_)" points="144.161,154.775 131.069,152.658 131.069,157.02 144.161,158.992 "/>
<polygon fill="#FFFFFF" points="80.357,161.895 131.069,152.658 131.069,157.02 80.357,165.791 "/>
<linearGradient id="SVGID_25_" gradientUnits="userSpaceOnUse" x1="115.5957" y1="213.2695" x2="122.8276" y2="242.5349">
	<stop  offset="0" style="stop-color:#F1F1F2"/>
	<stop  offset="1" style="stop-color:#929497"/>
</linearGradient>
<polygon fill="url(#SVGID_25_)" points="95.029,231.969 143.037,231.174 143.037,222.389 94.982,224.104 "/>
<linearGradient id="SVGID_26_" gradientUnits="userSpaceOnUse" x1="139.3008" y1="242.8555" x2="151.4324" y2="221.8429">
	<stop  offset="0" style="stop-color:#898B8D"/>
	<stop  offset="1" style="stop-color:#4A4A4C"/>
</linearGradient>
<polygon fill="url(#SVGID_26_)" points="143.037,222.389 143.037,231.174 134.189,231.02 134.189,239.904 152.946,239.904 
	152.946,231.33 152.946,222.717 "/>
<linearGradient id="SVGID_27_" gradientUnits="userSpaceOnUse" x1="107.1528" y1="221.7109" x2="115.1205" y2="252.1155">
	<stop  offset="0" style="stop-color:#F1F1F2"/>
	<stop  offset="1" style="stop-color:#929497"/>
</linearGradient>
<polygon fill="url(#SVGID_27_)" points="87.322,231.971 134.189,231.02 134.189,239.904 87.322,239.904 "/>
<polygon fill="#FFFFFF" points="152.946,222.717 143.037,221.633 94.982,224.104 95.028,231.691 95.906,224.658 141.717,222.811 
	142.554,231.146 143.037,231.174 143.037,222.686 "/>
<polygon fill="#FFFFFF" points="143.037,231.174 134.189,230.279 87.322,231.971 87.322,239.904 88.198,232.604 132.961,231.332 
	133.799,239.904 134.189,239.904 134.189,231.313 "/>
<rect x="25.314" y="239.904" fill="#434345" width="269.517" height="2.484"/>
<linearGradient id="SVGID_28_" gradientUnits="userSpaceOnUse" x1="138.8271" y1="158.4756" x2="64.6844" y2="70.1157">
	<stop  offset="0" style="stop-color:#0094D9"/>
	<stop  offset="0.5342" style="stop-color:#E6E7E8"/>
	<stop  offset="1" style="stop-color:#009DDA"/>
</linearGradient>
<path fill="url(#SVGID_28_)" d="M61.298,174.885v25.49l31.177-3.006v-27.434L61.298,174.885z M61.298,123.93v25.48l19.89-4.393
	v-26.726L61.298,123.93z M88.042,116.353v27.149l24.409-5.4v-28.669L88.042,116.353z M120.498,107.15v29.174l29.058-6.424V98.922
	L120.498,107.15z M61.298,72.957v25.491l19.89-6.872V64.853L61.298,72.957z M88.042,62.052v27.136l24.409-8.404V52.1L88.042,62.052z
	 M149.556,36.967l-29.058,11.848V77.98l29.058-10.027V36.967z"/>
<linearGradient id="SVGID_29_" gradientUnits="userSpaceOnUse" x1="257.1865" y1="70.1177" x2="162.176" y2="183.3468">
	<stop  offset="0" style="stop-color:#009DDA"/>
	<stop  offset="0.0779" style="stop-color:#2EACDD"/>
	<stop  offset="0.2535" style="stop-color:#A0D1E4"/>
	<stop  offset="0.356" style="stop-color:#E6E7E8"/>
	<stop  offset="1" style="stop-color:#0094D9"/>
</linearGradient>
<path fill="url(#SVGID_29_)" d="M240.687,198.447l19.884,1.928v-25.49l-19.884-3.145V198.447z M209.416,195.436l24.407,2.354
	v-27.127l-24.407-3.887V195.436z M172.318,191.857l29.059,2.795v-29.154l-29.059-4.627V191.857z M240.687,145.018l19.884,4.393
	v-25.48l-19.884-5.638V145.018z M209.416,138.102l24.407,5.4v-27.149l-24.407-6.92V138.102z M172.318,129.9l29.059,6.424V107.15
	l-29.059-8.229V129.9z M240.687,91.576l19.884,6.872V72.957l-19.884-8.104V91.576z M209.416,80.783l24.407,8.404V62.052
	L209.416,52.1V80.783z M172.318,36.967v30.986l29.059,10.027V48.814L172.318,36.967z"/>
<linearGradient id="SVGID_30_" gradientUnits="userSpaceOnUse" x1="127.3232" y1="200.375" x2="127.3232" y2="165.7422">
	<stop  offset="0" style="stop-color:#5A5B5D"/>
	<stop  offset="0.3169" style="stop-color:#484749"/>
	<stop  offset="1" style="stop-color:#231F20"/>
</linearGradient>
<polygon opacity="0.4" fill="url(#SVGID_30_)" points="101.7,168.469 119.75,170.646 152.946,165.742 152.946,197.789 
	119.75,200.375 "/>
<linearGradient id="SVGID_31_" gradientUnits="userSpaceOnUse" x1="145.9067" y1="158.9922" x2="145.9067" y2="154.7754">
	<stop  offset="0" style="stop-color:#5A5B5D"/>
	<stop  offset="0.3169" style="stop-color:#484749"/>
	<stop  offset="1" style="stop-color:#231F20"/>
</linearGradient>
<polygon opacity="0.4" fill="url(#SVGID_31_)" points="144.161,154.775 147.652,158.373 144.161,158.992 "/>
<radialGradient id="SVGID_32_" cx="261.0029" cy="229.4248" r="61.5898" gradientUnits="userSpaceOnUse">
	<stop  offset="0" style="stop-color:#231F20"/>
	<stop  offset="0.0779" style="stop-color:#2B2728"/>
	<stop  offset="0.1982" style="stop-color:#403D3D"/>
	<stop  offset="0.3458" style="stop-color:#636061"/>
	<stop  offset="0.5151" style="stop-color:#939192"/>
	<stop  offset="0.7002" style="stop-color:#D0CFD0"/>
	<stop  offset="0.8288" style="stop-color:#FFFFFF"/>
</radialGradient>
<polygon opacity="0.8" fill="url(#SVGID_32_)" points="206.392,182.637 265.288,175.641 265.288,200.836 267.277,201.902 
	267.277,226.082 261.323,225.889 261.323,239.904 198.228,239.904 "/>
<g>
	
		<linearGradient id="SVGID_33_" gradientUnits="userSpaceOnUse" x1="287.3652" y1="211.1221" x2="287.3652" y2="157.8867" gradientTransform="matrix(-0.9996 0.0281 0.0281 0.9996 542.1983 15.4457)">
		<stop  offset="0" style="stop-color:#0A4123"/>
		<stop  offset="1" style="stop-color:#98C93C"/>
	</linearGradient>
	<path fill="url(#SVGID_33_)" d="M233.482,213.377c-0.533-1.453-0.852-3.021-0.896-4.65c-0.229-7.996,5.915-14.654,13.721-14.861
		c1.8-0.061,3.527,0.264,5.139,0.85c0.443-7.391,6.319-13.324,13.694-13.533c7.792-0.223,14.306,6.08,14.532,14.063
		c0.089,3.301-0.92,6.348-2.657,8.838c6.752,0.93,12.043,6.734,12.248,13.928c0.214,7.982-5.925,14.639-13.732,14.861
		c-5.409,0.145-10.208-2.848-12.697-7.375c-0.307,0.027-0.611,0.076-0.924,0.084c-0.973,0.027-1.913-0.061-2.827-0.213
		c-1.904,5.461-6.905,9.428-12.911,9.604c-7.79,0.223-14.307-6.084-14.521-14.064C231.563,218.16,232.259,215.588,233.482,213.377z"
		/>
	
		<linearGradient id="SVGID_34_" gradientUnits="userSpaceOnUse" x1="283.1563" y1="231.6484" x2="283.1563" y2="195.3428" gradientTransform="matrix(-1 0 0 1 543.707 0)">
		<stop  offset="0" style="stop-color:#001A00"/>
		<stop  offset="1" style="stop-color:#98C93C"/>
	</linearGradient>
	<path fill="url(#SVGID_34_)" d="M245.929,200.398c1.147,0,2.205,0.324,3.116,0.881c0.235-0.715,0.561-1.426,1.008-2.086
		c2.65-4.012,8.132-5.053,12.237-2.344c1.691,1.121,2.878,2.701,3.51,4.457c2.86-3.061,7.652-3.672,11.354-1.232
		c4.104,2.709,5.282,8.166,2.631,12.182c-1.839,2.775-5.044,4.135-8.209,3.797c-0.104,0.156-0.19,0.328-0.29,0.494
		c-0.326,0.488-0.709,0.941-1.109,1.34c2.076,2.893,2.313,6.828,0.272,9.904c-2.65,4.014-8.132,5.068-12.235,2.342
		c-1.411-0.926-2.471-2.176-3.148-3.584c-0.918-0.25-1.817-0.637-2.66-1.193c-4.104-2.711-5.28-8.168-2.631-12.182
		c0.612-0.924,1.386-1.689,2.249-2.291c-0.414-0.32-0.777-0.674-1.111-1.045c-1.088,1.59-2.911,2.643-4.983,2.643
		c-3.335,0-6.03-2.713-6.03-6.041C239.898,203.096,242.594,200.398,245.929,200.398z"/>
	
		<linearGradient id="SVGID_35_" gradientUnits="userSpaceOnUse" x1="665.459" y1="831.5762" x2="665.459" y2="805.2432" gradientTransform="matrix(-0.6993 0.7148 0.7148 0.6993 139.295 -827.0946)">
		<stop  offset="0" style="stop-color:#0A4123"/>
		<stop  offset="1" style="stop-color:#002500"/>
	</linearGradient>
	<path fill="url(#SVGID_35_)" d="M245.612,228.361c-3.51-3.428-3.536-9.068-0.066-12.611c2.755-2.813,6.862-3.445,10.187-1.898
		c0.425-0.863,0.979-1.67,1.682-2.4c3.469-3.543,9.111-3.635,12.608-0.225c3.496,3.424,3.537,9.066,0.067,12.625
		c-0.645,0.641-1.345,1.174-2.102,1.584c0.386,2.66-0.438,5.479-2.479,7.563c-3.469,3.543-9.108,3.648-12.606,0.223
		c-0.732-0.715-1.302-1.512-1.723-2.375C249.152,230.703,247.165,229.879,245.612,228.361z"/>
	
		<linearGradient id="SVGID_36_" gradientUnits="userSpaceOnUse" x1="281.9531" y1="-160.0356" x2="281.9531" y2="-177.9912" gradientTransform="matrix(-0.897 0.442 0.442 0.897 562.6739 252.3313)">
		<stop  offset="0" style="stop-color:#0A4123"/>
		<stop  offset="1" style="stop-color:#98C93C"/>
	</linearGradient>
	<path fill="url(#SVGID_36_)" d="M229.984,227.848c-1.711-0.043-3.347-1.004-4.144-2.654c-1.164-2.355-0.201-5.209,2.149-6.369
		c2.353-1.16,5.206-0.178,6.369,2.176c0.043,0.09,0.079,0.199,0.116,0.289c0.443-0.594,1.023-1.098,1.723-1.443
		c2.351-1.158,5.204-0.193,6.367,2.162c1.161,2.357,0.198,5.211-2.151,6.373c-0.716,0.344-1.459,0.502-2.203,0.486
		c0.937,2.297-0.034,4.953-2.291,6.066c-2.35,1.158-5.204,0.178-6.366-2.176C228.757,231.123,228.972,229.232,229.984,227.848z"/>
	<g>
		<linearGradient id="SVGID_37_" gradientUnits="userSpaceOnUse" x1="267.5957" y1="224.3516" x2="254.1614" y2="226.9729">
			<stop  offset="0" style="stop-color:#3B2314"/>
			<stop  offset="1" style="stop-color:#754C28"/>
		</linearGradient>
		<path fill="url(#SVGID_37_)" d="M258.094,236.682c-0.079,1.266-0.112,2.275-0.117,3.223h8.963
			c7.165-6.449,14.981-16.719,14.981-16.719c-1.822,2.395-9.573,8.188-11.116,10.016c-0.704-0.492,0.808-5.738,0.905-9.674
			c0,0-3.512,7.313-2.415,11.035c-1.596,1.357-4.456,3.398-6.349,4.457c-0.398-6.043-0.72-10.207-0.975-13.084
			c-0.061-0.727,5.957-13.471,5.647-13.016c-2.474,3.709-3.612,4.371-5.702,8.748c-0.676,1.402-2.262-11.191-2.262-11.191
			c-0.856,0.801,0.108,9.416-0.212,11.336c-0.207,1.215-0.305,2.682-0.387,4.236c-0.105,1.754-0.317,5.945-0.502,7.709
			c-1.575-0.445-4.64-4.639-8.454-12.83C250.101,220.928,253.038,234.943,258.094,236.682z"/>
		<linearGradient id="SVGID_38_" gradientUnits="userSpaceOnUse" x1="249.4424" y1="233.6396" x2="239.9192" y2="235.4979">
			<stop  offset="0" style="stop-color:#3B2314"/>
			<stop  offset="1" style="stop-color:#754C28"/>
		</linearGradient>
		<path fill="url(#SVGID_38_)" d="M256.962,239.904h4.019c-4.557-2.541-19.275-6.982-24.63-12.227
			C236.351,227.678,238.453,234.018,256.962,239.904z"/>
	</g>
	
		<linearGradient id="SVGID_39_" gradientUnits="userSpaceOnUse" x1="-48.5698" y1="756.5586" x2="-48.5698" y2="732.9141" gradientTransform="matrix(-0.7325 -0.6807 -0.6807 0.7325 756.9747 -356.9841)">
		<stop  offset="0" style="stop-color:#0A4123"/>
		<stop  offset="1" style="stop-color:#98C93C"/>
	</linearGradient>
	<path fill="url(#SVGID_39_)" d="M285.878,215.215c0.247,0.23,0.453,0.477,0.664,0.715c2.851-2.711,7.295-2.822,10.152-0.17
		c2.965,2.75,3.09,7.461,0.262,10.492c-1.626,1.744-3.848,2.559-6.027,2.416c0.574,1.799,0.175,3.889-1.232,5.4
		c-2.056,2.205-5.479,2.375-7.639,0.365c-1.756-1.639-2.149-4.195-1.119-6.301c-1.901,0.098-3.805-0.533-5.284-1.91
		c-2.966-2.766-3.089-7.465-0.263-10.496C278.219,212.68,282.912,212.463,285.878,215.215z"/>
	
		<linearGradient id="SVGID_40_" gradientUnits="userSpaceOnUse" x1="241.2578" y1="-157.0415" x2="241.2578" y2="-174.9829" gradientTransform="matrix(-0.897 0.442 0.442 0.897 562.6739 252.3313)">
		<stop  offset="0" style="stop-color:#0A4123"/>
		<stop  offset="1" style="stop-color:#98C93C"/>
	</linearGradient>
	<path fill="url(#SVGID_40_)" d="M267.817,212.557c-1.711-0.043-3.347-1.02-4.145-2.652c-1.163-2.355-0.2-5.211,2.15-6.369
		c2.352-1.162,5.205-0.195,6.369,2.16c0.043,0.105,0.079,0.199,0.116,0.289c0.442-0.592,1.023-1.084,1.723-1.443
		c2.351-1.16,5.204-0.18,6.367,2.178c1.161,2.355,0.198,5.211-2.152,6.369c-0.716,0.346-1.458,0.49-2.203,0.475
		c0.938,2.297-0.033,4.953-2.29,6.066c-2.351,1.16-5.204,0.193-6.368-2.164C266.589,215.818,266.805,213.943,267.817,212.557z"/>
	
		<linearGradient id="SVGID_41_" gradientUnits="userSpaceOnUse" x1="304.3955" y1="155.9199" x2="304.3955" y2="134.585" gradientTransform="matrix(0.9999 0.0159 -0.0159 0.9999 -51.0054 65.9823)">
		<stop  offset="0" style="stop-color:#0A4123"/>
		<stop  offset="1" style="stop-color:#98C93C"/>
	</linearGradient>
	<path fill="url(#SVGID_41_)" d="M254.857,211.74c-0.301-0.004-0.595,0.018-0.886,0.051c-0.149-3.545-2.978-6.402-6.493-6.457
		c-3.661-0.055-6.666,2.93-6.723,6.674c-0.033,2.139,0.909,4.07,2.407,5.33c-1.5,0.82-2.54,2.434-2.568,4.291
		c-0.041,2.723,2.078,4.971,4.755,5.01c2.158,0.033,4.009-1.4,4.662-3.389c1.177,1.234,2.807,2.023,4.642,2.051
		c3.647,0.055,6.667-2.93,6.725-6.674C261.435,214.883,258.52,211.795,254.857,211.74z"/>
</g>
</svg>
	</g>
</svg>
