<svg xmlns="http://www.w3.org/2000/svg" xmlns:xlink="http://www.w3.org/1999/xlink">
	<g id="building" transform="translate(0 -3) scale(0.125)">
		<!-- width: 4, height: 3, origin: 0, 3 from top-left -->
		<!-- based on https://openclipart.org/download/170530/pib-coldarkAlt.svg -->
		<path style="fill:#483e30" d="m26 4-10-4-10 4-6 4v2h2v10l8 4 6-3 6 3 8-4v-10h2v-2z"/>
		<path style="fill:#544838" d="m16 21v-9l-6 2v10z"/>
		<path style="fill:#5c2b1c" d="m16 0v12l4 2 6-10z"/>
		<path style="fill:#544838" d="m22 24v-10l8-4v10z"/>
		<path style="fill:#483e30" d="m16 12v2l4 2v-2z"/>
		<path style="fill:#6b3221" d="m16 0v12l-4 2-6-10z"/>
		<path style="fill:#544838" d="m16 14v-2l-4 2v2z"/>
		<path style="fill:#544838" d="m20 16v-2l6-10 6 4v2z"/>
		<path style="fill:#483e30" d="m10 24v-10l-8-4v10z"/>
		<path style="fill:#483e30" d="m12 16v-2l-6-10-6 4v2z"/>
		<path style="fill:#544838" d="m8 23v-6l-1-1.5-2-1-1 0.5-0.0000025 6z"/>
		<path style="fill:#483e30" d="m23 20.5v-4l2-1v4z"/>
		<path style="fill:#483e30" d="m27 18.5v-4l2-1v4z"/>
		<path style="fill:#544838" d="m7 12v-3l-0.5-1.25-1-0.5-0.5 0.75v3z"/>
		<path style="fill:#483e30" d="m25 12v-3l0.5-1.25 1-0.5 0.5 0.75v3z"/>
	</g>
	<g id="platform" transform="translate(-7.5 -2.250108981) scale(0.01453080045)">
		<!-- width: 15, height: 3.000145308, origin: 7.5, 2.250108981 from top-left -->
		<!--
			scale factor: 15 / 1032.29 = 0.01453080045
			distance from origin to side: 1032.29 * 0.5 * scale factor = 7.5
			distance from origin to top: 206.468 * 0.75 * scale factor = 2.250108981
			distance from origin to center: 206.468 * 0.25 * scale factor = 0.750036327
			distance from center to bike-level = (206.468 * 0.5 - 23.6457) * scale factor = 1.15648170572
		-->
		<!-- taken from http://vignette2.wikia.nocookie.net/nintendo/images/3/34/Mario_Vs._Donkey_Kong_-_Tipping_Stars_-_Platform.svg/revision/latest?cb=20150524030343&path-prefix=en -->
		<path fill="#530304" d="M109.282,74.572c0,0-57.868,37.285-70.653,55.476h82.171l68.834-55.476H109.282z"/>
		<polygon fill="#981B1E" points="125.52,74.572 60.071,130.047 99.348,130.047 164.789,74.572 "/>
		<polygon fill="#ED1C24" points="104.369,95.184 60.075,130.055 88.726,130.055 131.194,95.184 "/>
		<path fill="#F4858E" d="M103.323,96.003l-43.248,34.052H82.76c5.689-9.587,11.81-19.06,18.264-28.343
			C101.842,99.825,102.616,97.933,103.323,96.003"/>
		<path fill="#530304" d="M249.412,74.572c0,0,57.867,37.285,70.661,55.476h-82.179l-68.843-55.476H249.412z"/>
		<polygon fill="#981B1E" points="233.173,74.572 298.614,130.047 259.337,130.047 193.905,74.572 "/>
		<polygon fill="#ED1C24" points="254.317,95.184 298.61,130.055 269.959,130.055 227.492,95.184 "/>
		<path fill="#530304" d="M370.135,74.572c0,0-57.867,37.285-70.652,55.476h82.178l68.827-55.476H370.135z"/>
		<polygon fill="#981B1E" points="386.374,74.572 320.926,130.047 360.209,130.047 425.651,74.572 "/>
		<polygon fill="#ED1C24" points="365.223,95.184 320.93,130.055 349.581,130.055 392.055,95.184 "/>
		<path fill="#F4858E" d="M364.185,96.003l-43.255,34.052h22.691c5.683-9.587,11.811-19.06,18.265-28.343
			C362.698,99.825,363.47,97.933,364.185,96.003"/>
		<path fill="#530304" d="M510.266,74.572c0,0,57.871,37.285,70.664,55.476h-82.189l-68.827-55.476H510.266z"/>
		<polygon fill="#981B1E" points="494.028,74.572 559.48,130.047 520.192,130.047 454.759,74.572 "/>
		<polygon fill="#ED1C24" points="515.178,95.184 559.472,130.055 530.817,130.055 488.346,95.184 "/>
		<path fill="#530304" d="M630.99,74.572c0,0-57.87,37.285-70.649,55.476h82.175l68.835-55.476H630.99z"/>
		<polygon fill="#981B1E" points="647.228,74.572 581.792,130.047 621.08,130.047 686.508,74.572 "/>
		<polygon fill="#ED1C24" points="626.084,95.184 581.792,130.055 610.439,130.055 652.917,95.184 "/>
		<path fill="#F4858E" d="M625.032,96.003l-43.24,34.052h22.681c5.69-9.587,11.81-19.06,18.276-28.343
			C623.555,99.825,624.332,97.933,625.032,96.003"/>
		<path fill="#530304" d="M771.121,74.572c0,0,57.871,37.285,70.664,55.476h-82.182l-68.835-55.476H771.121z"/>
		<polygon fill="#981B1E" points="754.882,74.572 820.334,130.047 781.046,130.047 715.617,74.572 "/>
		<polygon fill="#ED1C24" points="776.033,95.184 820.327,130.055 791.671,130.055 749.201,95.184 "/>
		<path fill="#530304" d="M891.844,74.572c0,0-57.871,37.285-70.649,55.476h82.175l68.835-55.476H891.844z"/>
		<polygon fill="#981B1E" points="908.083,74.572 842.646,130.047 881.918,130.047 947.363,74.572 "/>
		<polygon fill="#ED1C24" points="886.939,95.184 842.646,130.055 871.293,130.055 913.764,95.184 "/>
		<path fill="#F4858E" d="M885.894,96.003l-43.248,34.052h22.681c5.689-9.587,11.81-19.06,18.275-28.343
			C884.41,99.825,885.186,97.933,885.894,96.003"/>
		<rect x="92.251" y="32.958" fill="#ED1C24" width="906.471" height="46.389"/>
		<rect x="92.251" y="32.55" fill="#F4858E" width="906.471" height="19.683"/>
		<!-- top edge (top-most y-coordinate: 32.739 - 18.1866 / 2 = 23.6457) -->
		<line fill="none" stroke="#530304" stroke-width="18.1866" x1="92.251" y1="32.739" x2="998.722" y2="32.739"/>
		<line fill="none" stroke="#530304" stroke-width="18.1866" x1="92.251" y1="76.394" x2="998.722" y2="76.394"/>
		<rect x="92.251" y="127.126" fill="#ED1C24" width="906.471" height="46.392"/>
		<rect x="92.251" y="154.244" fill="#981B1E" width="906.471" height="19.683"/>
		<line fill="none" stroke="#530304" stroke-width="18.1866" x1="92.251" y1="173.734" x2="998.722" y2="173.734"/>
		<line fill="none" stroke="#530304" stroke-width="18.1866" x1="92.251" y1="130.079" x2="998.722" y2="130.079"/>
		<polygon fill="#ED1C24" points="95.181,158.45 130.051,114.148 130.051,142.803 95.181,185.282 "/>
		<path fill="#F4858E" d="M95.996,48.581l34.053,43.264V69.155c-9.584-5.693-19.063-11.809-28.344-18.275
			C99.813,50.069,97.925,49.289,95.996,48.581"/>
		<polygon fill="#530304" points="182.252,9.07 24.116,9.07 9.07,24.124 9.07,182.268 24.201,197.399
			182.252,197.399 197.391,182.26
			197.391,24.208 "/>
		<polygon fill="none" stroke="#530304" stroke-width="18.1394" stroke-linecap="round" stroke-linejoin="round" points="
			182.252,9.07 24.116,9.07 9.07,24.124 9.07,182.268 24.201,197.399 182.252,197.399 197.391,182.26 197.391,24.208 "/>
		<polygon fill="#ED1C24" points="176.632,15.763 29.744,15.763 15.755,29.745 15.755,176.648 29.825,190.709 176.632,190.709
			190.703,176.64 190.703,29.833 "/>
		<polygon fill="#981B1E" points="190.703,176.594 15.755,176.594 29.817,190.709 176.632,190.709 "/>
		<polygon fill="#981B1E" points="176.586,15.763 176.586,190.709 190.703,176.64 190.703,29.833 "/>
		<polygon fill="#F4858E" points="29.867,190.709 29.867,15.767 15.759,29.749 15.759,176.64 "/>
		<polygon fill="#F4858E" points="176.632,15.763 29.744,15.763 15.755,29.878 190.703,29.878 "/>
		<path fill="#322F30" d="M163.308,103.239c0,33.183-26.894,60.077-60.077,60.077c-33.188,0-60.09-26.895-60.09-60.077
			c0-33.176,26.902-60.086,60.09-60.086C136.415,43.153,163.308,70.063,163.308,103.239"/>
		<path fill="#BACAD3" d="M151.792,103.239c0,26.816-21.747,48.553-48.561,48.553c-26.825,0-48.561-21.736-48.561-48.553
			c0-26.814,21.735-48.553,48.561-48.553C130.044,54.686,151.792,76.424,151.792,103.239"/>
		<path fill="#727D84" d="M46.543,40.02c0,3.583-2.906,6.496-6.478,6.496c-3.583,0-6.489-2.913-6.489-6.496s2.906-6.478,6.489-6.478
			C43.637,33.542,46.543,36.437,46.543,40.02"/>
		<path fill="#E1F4FD" d="M41.954,33.854l-1.888-0.315c-3.583,0-6.489,2.898-6.489,6.481c0,2.329,1.227,4.344,3.064,5.501
			C40.542,43.499,43.238,38.498,41.954,33.854"/>
		<path fill="#727D84" d="M172.904,40.02c0,3.583-2.906,6.496-6.489,6.496c-3.579,0-6.478-2.913-6.478-6.496s2.898-6.478,6.478-6.478
			C169.998,33.542,172.904,36.437,172.904,40.02"/>
		<path fill="#E1F4FD" d="M168.313,33.854l-1.898-0.315c-3.579,0-6.478,2.898-6.478,6.481c0,2.329,1.227,4.344,3.063,5.501
			C166.895,43.499,169.59,38.498,168.313,33.854"/>
		<path fill="#727D84" d="M172.904,166.252c0,3.584-2.906,6.49-6.489,6.49c-3.579,0-6.478-2.906-6.478-6.49
			c0-3.582,2.898-6.48,6.478-6.48C169.998,159.772,172.904,162.67,172.904,166.252"/>
		<path fill="#E1F4FD" d="M168.313,160.086l-1.898-0.314c-3.579,0-6.478,2.906-6.478,6.48c0,2.338,1.227,4.345,3.063,5.498
			C166.895,169.736,169.59,164.723,168.313,160.086"/>
		<path fill="#727D84" d="M46.543,166.252c0,3.584-2.906,6.49-6.478,6.49c-3.583,0-6.489-2.906-6.489-6.49
			c0-3.582,2.906-6.48,6.489-6.48C43.637,159.772,46.543,162.67,46.543,166.252"/>
		<path fill="#E1F4FD" d="M41.954,160.086l-1.888-0.314c-3.583,0-6.489,2.906-6.489,6.48c0,2.338,1.227,4.345,3.064,5.498
			C40.542,169.736,43.238,164.723,41.954,160.086"/>
		<path fill="#FFFFFF" d="M85.347,58.087c-17.968,7.116-30.673,24.649-30.673,45.151c0,2.198,0.165,4.348,0.442,6.466
			c3.583,4.183,8.446,6.458,14.5,6.458c17.414,0,27.044-16.026,29.108-34.859C99.944,70.236,95.842,58.718,85.347,58.087"/>
		<path fill="#727D84" d="M135.599,67.048c5.724,9.1,1.93,33.199-5.497,43.21c0,0-44.489-37.854-55.707-46.043l-3.817,2.722
			c0,0,60.604,65.141,60.692,67.116c0.166,3.668,0.204,5.09,0.204,5.09c-6.15-2.96-16.308-7.396-18.345-8.88
			c-8.715,10.472-19.405,16.376-32.964,15.716c6.858,3.705,14.716,5.812,23.069,5.812c26.813,0,48.561-21.744,48.561-48.549
			C151.795,88.857,145.529,75.936,135.599,67.048"/>
		<polygon fill="#FFFFFF" points="82.203,106.006 122.221,127.542 121.914,117.831 91.751,94.189 "/>
		<polygon fill="#322F30" points="148.493,129.756 137.794,143.372 58.849,77.128 69.551,63.532 "/>
		<polygon fill="#530304" points="1008.071,9.07 849.935,9.07 834.888,24.124 834.888,182.268 850.019,197.399 1008.071,197.399
			1023.217,182.26 1023.217,24.208 "/>
		<polygon fill="none" stroke="#530304" stroke-width="18.1394" stroke-linecap="round" stroke-linejoin="round" points="
			1008.071,9.07 849.935,9.07 834.888,24.124 834.888,182.268 850.019,197.399 1008.071,197.399
			1023.217,182.26 1023.217,24.208 "/>
		<polygon fill="#ED1C24" points="1002.451,15.763 855.563,15.763 841.585,29.745 841.585,176.648 855.639,190.709 1002.451,190.709
			1016.521,176.64 1016.521,29.833 "/>
		<polygon fill="#981B1E" points="1016.521,176.594 841.585,176.594 855.639,190.709 1002.451,190.709 "/>
		<polygon fill="#981B1E" points="1002.405,15.763 1002.405,190.709 1016.521,176.64 1016.521,29.833 "/>
		<polygon fill="#F4858E" points="855.694,190.709 855.694,15.767 841.585,29.749 841.585,176.64 "/>
		<polygon fill="#F4858E" points="1002.451,15.763 855.563,15.763 841.585,29.878 1016.521,29.878 "/>
		<path fill="#322F30" d="M989.126,103.239c0,33.183-26.894,60.077-60.077,60.077s-60.078-26.895-60.078-60.077
			c0-33.176,26.895-60.086,60.078-60.086S989.126,70.063,989.126,103.239"/>
		<path fill="#BACAD3" d="M977.61,103.239c0,26.816-21.743,48.553-48.561,48.553s-48.553-21.736-48.553-48.553
			c0-26.814,21.735-48.553,48.553-48.553S977.61,76.424,977.61,103.239"/>
		<path fill="#727D84" d="M872.362,40.02c0,3.583-2.906,6.496-6.481,6.496c-3.583,0-6.489-2.913-6.489-6.496s2.906-6.478,6.489-6.478
			C869.456,33.542,872.362,36.437,872.362,40.02"/>
		<path fill="#E1F4FD" d="M867.772,33.854l-1.892-0.315c-3.583,0-6.489,2.898-6.489,6.481c0,2.329,1.23,4.344,3.076,5.501
			C866.365,43.499,869.064,38.498,867.772,33.854"/>
		<path fill="#727D84" d="M998.722,40.02c0,3.583-2.906,6.496-6.489,6.496s-6.474-2.913-6.474-6.496s2.891-6.478,6.474-6.478
			S998.722,36.437,998.722,40.02"/>
		<path fill="#E1F4FD" d="M994.132,33.854l-1.899-0.315c-3.583,0-6.474,2.898-6.474,6.481c0,2.329,1.223,4.344,3.06,5.501
			C992.709,43.499,995.416,38.498,994.132,33.854"/>
		<path fill="#727D84" d="M998.722,166.252c0,3.584-2.906,6.49-6.489,6.49s-6.474-2.906-6.474-6.49c0-3.582,2.891-6.48,6.474-6.48
			S998.722,162.67,998.722,166.252"/>
		<path fill="#E1F4FD" d="M994.132,160.086l-1.899-0.314c-3.583,0-6.474,2.906-6.474,6.48c0,2.338,1.223,4.345,3.06,5.498
			C992.709,169.736,995.416,164.723,994.132,160.086"/>
		<path fill="#727D84" d="M872.362,166.252c0,3.584-2.906,6.49-6.481,6.49c-3.583,0-6.489-2.906-6.489-6.49
			c0-3.582,2.906-6.48,6.489-6.48C869.456,159.772,872.362,162.67,872.362,166.252"/>
		<path fill="#E1F4FD" d="M867.772,160.086l-1.892-0.314c-3.583,0-6.489,2.906-6.489,6.48c0,2.338,1.23,4.345,3.076,5.498
			C866.365,169.736,869.064,164.723,867.772,160.086"/>
		<path fill="#FFFFFF" d="M911.173,58.087c-17.976,7.116-30.669,24.649-30.669,45.151c0,2.198,0.153,4.348,0.431,6.466
			c3.582,4.183,8.457,6.458,14.5,6.458c17.422,0,27.048-16.026,29.108-34.859C925.758,70.236,921.668,58.718,911.173,58.087"/>
		<path fill="#727D84" d="M961.417,67.048c5.735,9.1,1.93,33.199-5.489,43.21c0,0-44.501-37.854-55.711-46.043l-3.813,2.722
			c0,0,60.601,65.141,60.686,67.116c0.161,3.668,0.207,5.09,0.207,5.09c-6.15-2.96-16.314-7.396-18.345-8.88
			c-8.719,10.472-19.405,16.376-32.96,15.716c6.857,3.705,14.708,5.812,23.058,5.812c26.817,0,48.561-21.744,48.561-48.549
			C977.61,88.857,971.351,75.936,961.417,67.048"/>
		<polygon fill="#FFFFFF" points="908.021,106.006 948.04,127.542 947.732,117.831 917.57,94.189 "/>
		<polygon fill="#322F30" points="974.311,129.756 963.617,143.372 884.671,77.128 895.374,63.532 "/>
	</g>
	<g id="Z" transform="scale(-0.01001669449 0.01001669449) translate(-114 -81.5)">
		<!-- width: 1.8, height: 1.90717863102, origin: 0.85242070115, 0.81636060099 from top-left (corner of shorts) -->
		<!--
			scale factor = 1.8 / (199.1-19.4) = 0.01001669449
			distance from origin to front: (114 - 19.4) * scale factor = 0.94757929883
			distance from origin to back: (199.1 - 114) * scale factor = 0.85242070115
			distance from origin to top: 81.5 * scale factor = 0.81636060099
			distance from origin to bottom: (190.4 - 81.5) * scale factor = 1.09081803005
			horizontal distance from origin to front wheel center: (57.7 - 114) * -scale factor = 0.56393989983
			vertical distance from origin to front wheel center: (152.4 - 81.5) * scale factor = 0.71018363939
			horizontal distance from origin to back wheel center: (160.8 - 114) * -scale factor = -0.46878130217
			vertical distance from origin to back wheel center: (152.4 - 81.5) * scale factor = 0.71018363939
			wheel radius: 36 * scale factor = 0.36060100166
		-->
		<!-- based on http://www.realogycsr.com/images/environment/bike_rider.svg -->
		<path fill="#FAED24" d="M103.5,172.1l10.7,1.2c3.5,0.4,6.6-2.1,7-5.6l-1.3-5.4l-15.3-1.6c-3.1-0.4-6,2-6.3,5.1v0.1
			C98,169,100.2,171.8,103.5,172.1"/>
		<path fill="#D6AB88" d="M114.5,165.5L114.5,165.5c-2.8-0.5-4.6-3.1-4-5.8l10.5-51.1l9.4,2.7l-10,50.4
			C119.8,164.2,117.2,166,114.5,165.5"/>
		<line fill="none" x1="125.7" y1="110.3" x2="138.4" y2="76.4"/>
		<polygon fill="#96BC42" points="132.1,74.1 122.9,102.6 133.1,105.7 144.6,78.7 	"/>
		<polygon fill="#D92627" points="121.1,108.5 130.4,112 133.1,105.7 122.9,102.6 	"/>
		<path fill="#D92627" d="M113.9,38.2c-0.2-0.1-0.4-0.2-0.6-0.3L103,59l1.5,0.3c0.4,0.1,0.7,0.1,1,0.2l9.5-20.8
			C114.7,38.6,114.4,38.4,113.9,38.2"/>
		<path fill="#E6E6E5" d="M111,37.2c-1-0.4-2.1-0.7-3-1l-3-0.9c-1-0.3-2.1-0.5-3.1-0.6c-1.1-0.2-2.1-0.3-3.1-0.3
			c-1.1,0-2.1,0.1-3.2,0.3c-1.1,0.2-2.1,0.4-3.3,0.9l-2.4,16.8c0.9,1,1.9,1.8,2.9,2.5c1,0.7,2,1.3,2.9,1.8
			c1,0.5,2,0.9,3,1.3c1,0.4,2.1,0.6,3,0.9l1.6,0.4l10.3-21C112.5,37.7,111.7,37.4,111,37.2"/>
		<path fill="#E6E6E5" d="M142.5,50c-0.2-0.1-0.3-0.2-0.4-0.3l-0.2-0.1l-0.9-0.3c-2.1-0.6-4-1.3-6.1-2.1
			c-1-0.4-2.1-0.8-3-1.2c-1-0.4-2-0.8-3-1.3c-2-0.8-4-1.8-6-2.7s-4-1.8-6-2.6
			c-0.6-0.3-1.3-0.5-1.9-0.7l-9.5,20.8
			c0.7,0.1,1.4,0.3,2.1,0.4c1.1,0.2,2.1,0.3,3.1,0.4c1.1,0.2,2.1,0.2,3.1,0.4c2.1,0.2,4.2,0.3,6.3,0.4
			c2.1,0.1,4.2,0.3,6.3,0.4c1.1,0.1,2.1,0.2,3.1,0.3
			c1.1,0.1,2.1,0.2,3.1,0.4c1.9,0.3,3.8,0.5,5.7,0.9l0,0c-0.2-0.1-0.4-0.2-0.5-0.3l0.5,0.2L142.5,50z"/>
		<path fill="#D6AB88" d="M48.4,16.7h5.9c1.3,0,2.3-1.3,2.3-2.9V5.5c0-3-2-5.5-4.4-5.5h-1.8
			c-2.4,0-4.4,2.5-4.4,5.5v8.3
			C46.2,15.5,47.2,16.7,48.4,16.7"/>
		<path fill="#D6AB88" d="M59.8,7.5c-1.3,0-2.3,1.1-2.3,2.3V13h-0.3c-3.2-2.8-6.1,0.5-6.1,3.2v1.9h4.5
			c0.9,0,1.7-0.4,2.2-1.2l2.4-3.6c0.2-0.3,0.3-0.5,0.3-0.9V8.2C60.5,7.9,60.2,7.5,59.8,7.5L59.8,7.5z"/>
		<rect x="79.2" y="48" fill="#D92627" width="6" height="8.8"/>
		<path fill="#D6AB88" d="M62.2,48c-3.9,0-7.1-3.2-7.1-7.1V14.5c0-2.4-2-4.5-4.5-4.5
			c-2.4,0-4.5,2-4.5,4.5v26.4c0,8.8,7.1,16,16,16h17.1V48H62.2z"/>
		<path fill="#96BC42" d="M92.4,48h-7.1v8.8h7.1c2.4,0,4.5-2,4.5-4.5C96.8,50,94.8,48,92.4,48"/>
		<path fill="#EAF4FC" d="M157.1,85c-0.4-0.4-1-0.4-1.3,0l-2.5,2.5c-0.3,0.3-0.4,0.6-0.4,1c0,0.4-0.4,1.1-0.9,1.6
			c-0.5,0.5-1.2,0.9-1.6,0.9c-0.4,0-0.7,0.1-1.1,0.4l-3.8,3.8c-0.4,0.4-0.4,1,0,1.3l2.2,2.2l11.6-11.5
			L157.1,85z"/>
		<path fill="#AAB3BA" d="M161.5,89.4l-2.2-2.2l-11.6,11.5l2.2,2.2c0.4,0.4,1,0.4,1.3,0l3.8-3.8
			c0.3-0.3,0.4-0.6,0.4-1
			c0-0.4,0.4-1.1,0.9-1.6s1.2-0.9,1.6-0.9c0.4,0,0.7-0.1,1.1-0.4l2.5-2.5C161.9,90.3,161.9,89.8,161.5,89.4"/>
		<path fill="#495148" d="M158.2,83.6c-0.3-0.3-0.8-0.3-1.1,0s-0.3,0.8,0,1.1l2.4,2.3l1.1-1.1L158.2,83.6z"/>
		<path fill="#2C322C" d="M163,89.4c0.3-0.3,0.3-0.8,0-1.1
			l-2.4-2.3l-1.1,1.1l2.4,2.3C162.2,89.6,162.7,89.6,163,89.4"/>
		<path fill="#2C322C" d="M163.6,87c0.4-0.4,0.4-1,0-1.3l-0.9-0.9l-0.4-0.4l-1.4,1.4l2.1,2.1L163.6,87z"/>
		<path fill="#495148" d="M161.8,83.9l-0.9-0.9c-0.4-0.4-1-0.4-1.3,0l-0.7,0.7l2.1,2.1l1.4-1.4L161.8,83.9z"/>
		<polygon fill="#2C322C" points="162.7,83.8 162.3,83.4 161.8,83.9 162.3,84.4 	"/>
		<polygon fill="#2C322C" points="162.3,84.4 162.7,84.8 163.2,84.4 162.7,83.8 	"/>
		<path fill="#495148" d="M163.1,83.5l-0.4-0.3c-0.2-0.2-0.4-0.2-0.6,0l-0.1,0.1l0.2,0.2l0.4,0.4L163.1,83.5z"/>
		<path fill="#2C322C" d="M163.2,84.4l0.2,0.2l0.1-0.1c0.2-0.2,0.2-0.4,0-0.6l-0.4-0.3l-0.4,0.4L163.2,84.4z"/>
		<path fill="#FDC02E" d="M114.4,164.5c-3.8,0-7.1-2.7-7.8-6.3V158c-0.4-2.1,0-4.4,1.3-6.2c1.3-1.8,3.3-2.9,5.5-3.2
			l47.4-0.7l0,0c2.3,0,4.2,1.7,4.5,3.9c0.2,2.3-1.3,4.4-3.7,4.7l-45,7.6C115.8,164.4,115.1,164.5,114.4,164.5
			M160.7,149.1l-47.3,0.7
			c-1.8,0.2-3.5,1.3-4.6,2.8c-1.1,1.5-1.5,3.4-1.2,5.2v0.2c0.6,3.1,3.4,5.4,6.6,5.4
			c0.6,0,1.3-0.1,1.9-0.3l45.1-7.7
			c1.6-0.3,2.8-1.8,2.7-3.4C163.8,150.3,162.4,149.1,160.7,149.1"/>
		<path fill="#92D5D6" d="M115.9,149.4l0.2,0.5c0.1,0.4,0.6,0.4,0.8,0.1l0.3-0.4c0.3-0.4,0.9-0.2,0.9,0.3v0.5
			c0,0.4,0.4,0.6,0.7,0.4
			l0.4-0.4c0.4-0.3,0.9,0.1,0.7,0.5l-0.2,0.5c-0.1,0.4,0.3,0.7,0.6,0.5l0.5-0.2
			c0.4-0.2,0.8,0.4,0.5,0.7l-0.3,0.4
			c-0.2,0.4,0,0.7,0.4,0.7h0.5c0.4,0,0.7,0.5,0.4,0.8l-0.4,0.4c-0.3,0.3-0.2,0.7,0.2,0.8l0.5,0.1
			c0.4,0.1,0.4,0.7,0.1,0.9l-0.4,0.2
			c-0.4,0.2-0.4,0.6-0.1,0.8l0.4,0.3c0.4,0.3,0.3,0.8-0.2,0.9l-0.5,0.1c-0.4,0-0.5,0.4-0.3,0.8l0.4,0.4
			c0.3,0.4,0,0.9-0.4,0.8
			l-0.5-0.1c-0.4-0.1-0.7,0.3-0.5,0.6l0.2,0.4c0.2,0.4-0.3,0.8-0.6,0.6l-0.4-0.3
			c-0.4-0.2-0.7,0.1-0.7,0.4l0.1,0.5
			c0.1,0.4-0.5,0.7-0.8,0.4l-0.4-0.4c-0.3-0.3-0.7-0.1-0.8,0.3L117,164c-0.1,0.4-0.7,0.5-0.9,0.1l-0.3-0.4
			c-0.2-0.4-0.6-0.4-0.8,0
			l-0.3,0.4c-0.2,0.4-0.8,0.4-0.9-0.1l-0.1-0.5c-0.1-0.4-0.5-0.5-0.8-0.3l-0.4,0.4
			c-0.4,0.4-0.9,0.1-0.8-0.4l0.1-0.5
			c0.1-0.4-0.4-0.6-0.7-0.4l-0.4,0.3c-0.4,0.2-0.8-0.2-0.6-0.6l0.2-0.4c0.2-0.4-0.2-0.7-0.5-0.6l-0.5,0.1
			c-0.4,0.1-0.7-0.4-0.4-0.8
			l0.4-0.4c0.3-0.3,0.1-0.7-0.3-0.8l-0.5-0.1c-0.4,0-0.6-0.6-0.2-0.9l0.4-0.3c0.4-0.2,0.3-0.7-0.1-0.8l-0.4-0.2
			c-0.4-0.2-0.4-0.8,0.1-0.9l0.5-0.1c0.4-0.1,0.4-0.5,0.2-0.8l-0.4-0.4c-0.4-0.3-0.1-0.9,0.4-0.8h0.5
			c0.4,0,0.6-0.4,0.4-0.7l-0.3-0.4
			c-0.3-0.4,0.1-0.9,0.5-0.7l0.5,0.2c0.4,0.2,0.7-0.2,0.6-0.5l-0.2-0.5c-0.1-0.4,0.4-0.8,0.7-0.5l0.4,0.4
			c0.3,0.3,0.7,0,0.8-0.4v-0.5
			c0-0.4,0.6-0.6,0.9-0.3l0.3,0.4c0.3,0.4,0.7,0.3,0.8-0.1l0.2-0.5C115.2,149,115.8,149,115.9,149.4"/>
		<path fill="#92D5D6" d="M161,148.6l0.1,0.3c0.1,0.2,0.3,0.2,0.4,0.1l0.2-0.2c0.1-0.2,0.4-0.1,0.4,0.1v0.3
			c0,0.2,0.3,0.3,0.4,0.2
			l0.2-0.2c0.2-0.2,0.4,0,0.4,0.3l0,0.3c-0.1,0.2,0.1,0.4,0.4,0.3l0.3-0.1c0.2-0.1,0.4,0.2,0.3,0.4l-0.2,0.2
			c-0.1,0.2,0,0.4,0.2,0.4
			h0.3c0.3,0,0.4,0.3,0.2,0.4l-0.2,0.2c-0.2,0.1-0.1,0.4,0.1,0.4l0.3,0.1c0.3,0.1,0.3,0.4,0,0.4l-0.3,0.1
			c-0.2,0.1-0.2,0.4,0,0.4
			l0.3,0.2c0.2,0.1,0.1,0.4-0.1,0.4h-0.3c-0.2,0-0.3,0.3-0.2,0.4l0.2,0.2c0.2,0.2,0,0.4-0.3,0.4l-0.3-0.1
			c-0.2,0-0.4,0.2-0.3,0.4
			l0.1,0.3c0.1,0.2-0.1,0.4-0.4,0.3l-0.3-0.1c-0.2-0.1-0.4,0.1-0.4,0.3v0.3c0,0.3-0.3,0.4-0.4,0.2l-0.2-0.2
			c-0.2-0.2-0.4-0.1-0.4,0.1
			l-0.1,0.3c0,0.3-0.4,0.3-0.4,0.1l-0.1-0.3c-0.1-0.2-0.4-0.2-0.4,0l-0.1,0.3c-0.1,0.2-0.4,0.2-0.4-0.1v-0.3
			c0-0.2-0.3-0.3-0.4-0.1
			l-0.2,0.2c-0.2,0.2-0.4,0-0.4-0.2v-0.3c0-0.2-0.2-0.4-0.4-0.3l-0.3,0.1c-0.2,0.1-0.4-0.1-0.4-0.3l0.1-0.3
			c0.1-0.2-0.1-0.4-0.3-0.4
			l-0.3,0.1c-0.3,0.1-0.4-0.2-0.3-0.4l0.2-0.2c0.1-0.2,0-0.4-0.2-0.4h-0.3c-0.3,0-0.3-0.4-0.1-0.4l0.3-0.2
			c0.2-0.1,0.2-0.4,0-0.4
			l-0.3-0.1c-0.2-0.1-0.2-0.4,0-0.4l0.3-0.1c0.2-0.1,0.3-0.3,0.1-0.4l-0.2-0.2c-0.2-0.2-0.1-0.4,0.2-0.4h0.3
			c0.2,0,0.4-0.2,0.2-0.4
			l-0.2-0.2c-0.1-0.2,0.1-0.4,0.3-0.4l0.3,0.1c0.2,0.1,0.4-0.1,0.4-0.3l-0.1-0.3
			c-0.1-0.2,0.2-0.4,0.4-0.3l0.2,0.2
			c0.2,0.1,0.4,0,0.4-0.2v-0.3c0-0.3,0.3-0.4,0.4-0.1l0.2,0.2c0.1,0.2,0.4,0.1,0.4-0.1
			l0.1-0.3C160.7,148.4,160.9,148.4,161,148.6"/>
		<!-- back wheel (center: 160.8, 152.4; bottom point: 160.8, 190.4; right-most point: 199.1, 152.4) -->
		<path fill="#8F4A21" d="M160.8,116.5c19.9,0,36.2,16.1,36.2,35.8s-16.2,35.8-36.2,35.8c-19.9,0-36.2-16.1-36.2-35.8
			S140.8,116.5,160.8,116.5 M160.8,114.4c-21.2,0-38.3,17.1-38.3,38c0,21,17.2,38,38.3,38s38.3-17.1,38.3-38
			C199.2,131.4,181.9,114.4,160.8,114.4"/>
		<path fill="#2C322C" d="M160.8,120.9c17.5,0,31.7,14.1,31.7,31.5s-14.2,31.5-31.7,31.5s-31.7-14.1-31.7-31.5
			C129,135,143.2,120.9,160.8,120.9 M160.8,116.5c-19.9,0-36.2,16.1-36.2,35.8s16.2,35.8,36.2,35.8c19.9,0,36.2-16.1,36.2-35.8
			C196.9,132.6,180.8,116.5,160.8,116.5"/>
		<!-- front wheel (center: 57.7, 152.4; bottom point: 57.7, 190.4; left-most point: 19.4, 152.4 -->
		<path fill="#8F4A21" d="M57.7,116.5c19.9,0,36.2,16.1,36.2,35.8s-16.2,35.8-36.2,35.8c-19.9,0-36.2-16.1-36.2-35.8
			C21.5,132.6,37.7,116.5,57.7,116.5 M57.7,114.4c-21.2,0-38.3,17.1-38.3,38c0,21,17.2,38,38.3,38s38.3-17.1,38.3-38
			C96,131.4,78.9,114.4,57.7,114.4"/>
		<path fill="#2C322C" d="M57.7,120.9c17.5,0,31.7,14.1,31.7,31.5s-14.2,31.5-31.7,31.5S26,169.7,26,152.4
			C25.9,135,40.2,120.9,57.7,120.9 M57.7,116.5c-19.9,0-36.2,16.1-36.2,35.8s16.2,35.8,36.2,35.8c19.9,0,36.2-16.1,36.2-35.8
			C93.8,132.6,77.6,116.5,57.7,116.5"/>
		<path fill="#FBAC1C" d="M160.1,149.9l-18-42.3l-0.1-0.2h-2.5l3.3-13.9h-7.1l-1.1,3.3l-60.3-1.3l0.2-1.3
			l-4.3-0.7l-4,16.9l6.5,1.2
			l0.2-1.7l40.8,49c0.4,0.5,1.1,0.8,1.7,0.8c0.1,0,0.3,0,0.4,0c0.8-0.2,1.4-0.7,1.7-1.4l0,0l38-4.4
			c0.6-0.1,1.3-0.4,1.6-0.8l2.7-2.9
			L160.1,149.9z M114.6,153.1l-41.1-49.3l0.4-3.9l58.8,1.3L114.6,153.1z M156,152.1
			c-0.2,0.2-1,0.4-1.3,0.4l-36.1,2.3l5.9-16.9h0.1
			c4.4-10.5,11.2-14.9,11.2-14.9l3.6-14.8h2.2l17.5,41.1L156,152.1z"/>
		<path fill="#FAED24" d="M160,149.8l1,2.4c0.4,0.9-0.4,1.6-1.3,1.2l-2.1-0.9L160,149.8z"/>
		<polygon fill="#2C322C" points="66.2,110.8 72.7,112.1 73.4,116.8 57,154.1 55.4,153.5 	"/>
		<path fill="#2C322C" d="M56.7,95c-1.3,0-2.3-1-2.4-2.2c-0.1-1.3,1-2.4,2.2-2.5l17.2-1.3c1.1-0.1,1.9,0.7,2,1.7
			c0.1,1-0.7,1.9-1.8,1.9L56.7,95C56.8,95,56.7,95,56.7,95"/>
		<path fill="#8F4A21" d="M61.3,113.2h-4.2c-7.1,0-13-5-13-11.2s5.8-11.2,13-11.2c1,0,1.8,0.8,1.8,1.7
			c0,1-0.8,1.7-1.8,1.7
			c-5.2,0-9.5,3.5-9.5,7.7c0,4.2,4.2,7.7,9.5,7.7h4.2c1,0,1.8,0.8,1.8,1.7C63.1,112.4,62.3,113.2,61.3,113.2"/>
		<polygon fill="#2C322C" points="74.2,94 70.7,93.4 71.7,87.8 75.2,88.4 	"/>
		<path fill="#2C322C" d="M136.9,93.5h3.8c0.4-1.2,0.7-2.3,1-3.5
			c0.5-1.8,0.8-3.9,2.1-5.4c1.1-1.3,3.6-1.7,3.8-3.7h-1.8
			c0,0-0.7,1-2.2,1c-0.9,0-1.3-1-1.3-1h-1.3l0.2,0.5c0.1,0.2,0.4,0.4,0.4,0.5
			c0.2,0.4,0.1,0.4-0.4,0.6c-1.4,1-2,3.1-2.5,4.7
			C137.9,89.4,137.4,91.4,136.9,93.5"/>
		<path fill="#2C322C" d="M135.8,93.5h7.1l-1,4.1c0,0-1.9-1.7-3.2-2.1c-1.4-0.4-3.5,0-3.5,0L135.8,93.5z"/>
		<path fill="#2C322C" d="M131,77.7l27.3-1.3c0.9,0,1.4,1,0.9,1.7l-1.3,1.7c0,0-3.2,3.7-5.3,3.5c-2-0.2-3.6-3-6-3
			c-2.1,0-13.7-0.3-17.7-0.4c-0.5,0-0.8-0.6-0.4-1.1l0,0C129.3,78,130.1,77.7,131,77.7"/>
		<polygon fill="#2C322C" points="153.8,86.6 150.5,89.9 147.8,89.9 145.1,87.9 143.9,88.8 147.3,91.3 148.9,91.3
			147.4,92.8
			147.4,97.8 148.9,96.5 148.9,93.5 154.4,88 157.2,88 158.4,86.6 	"/>
		<path fill="#D6AB88" d="
			M66.8,29.1l4.8,8.9c1.7,3.1,5.6,4.3,8.8,2.6l3.2-1.8V39c3.1,5.8,5.9,6,8.4,4.6l2.6-1.3L78.3,12l-7.5,4
			C66.1,18.5,64.3,24.4,66.8,29.1"/>
		<path fill="#F3C9A0" d="M70,24.3l3.8,7.1c0.8,1.5,2.8,2.1,4.3,1.3l2.6-1.4c1.9-1,4.3-0.4,5.3,1.6l5.7,10.7l2.8-1.5
			c2.1-1.2,2.9-3.8,1.5-6.3l-14-26c0.1,0.2-0.3,0.1-0.4,0.2l-8.7,4.6C69.5,16.5,68.2,20.8,70,24.3"/>
		<path fill="#B96428" d="M71.8,36.8l11.3-6.1c0.8-0.4,1.2-1.4,0.7-2.2l-5.5-10.1l-5.5-1.6l-6.3,3.3V20
			c-1.9-3.6-0.5-8,3-9.8L71.8,9
			c5.6-3,12.7-1,15.7,4.6l6.9,12.8c0.9,1.7,0.3,3.8-1.4,4.7l0,0l-8.2-15.3l-2.9,1.5l5.8,10.7v0.1l1.8,3.3
			c1.9,3.4,0.5,7.7-2.9,9.6
			L82,43.6c-3.3,1.8-7.5,0.5-9.3-2.8l-1.3-2.5C71,37.8,71.2,37.1,71.8,36.8"/>
		<path fill="#F3C9A0" d="M89.1,28.1l-1.2,0.6l-6.3-11.6l1.2-0.6c2-1.1,4.5-
			0.4,5.5,1.6l2.4,4.4C91.8,24.5,91,27,89.1,28.1"/>
		<path fill="#F3C9A0" d="M80.1,38.9l1.6-0.9c0.4-0.2,0.6-2.2,0.4-2.6l0,0c-0.2-0.4-0.5-0.4-0.9-0.3l-3.6,2
			c-0.4,0.2-0.4,0.5-0.3,0.9
			l0,0C77.5,38.2,79.7,39.1,80.1,38.9"/>
		<path fill="#85A5BA" d="M86.8,12.2l-11,5.9l-10.5,5.7c0,0-3.8-9.6,5.9-14.8C81.5,3.5,86.8,12.2,86.8,12.2"/>
		<path fill="#E6E6E5" d="M64.3,15.5c3.8-2.1,12.9-3,14.9,0.7l-9.9,5.4l-7-4.8C62.8,16.4,63.5,16,64.3,15.5"/>
		<path fill="#CDCCCC" d="M62.3,16.9l7,4.8l-3.9,2.1C61.9,22.8,58.2,20.1,62.3,16.9"/>
		<path fill="#B96428" d="M74.2,24.7c0.4,0.7,3.1-0.7,2.8-1.5c-0.4-0.7-1.3-1.1-2.1-0.6
			C74.1,23,73.8,23.9,74.2,24.7"/>
		<path fill="#B96428" d="M67.1,28.5c0.4,0.7,3.1-0.7,2.8-1.5
			c-0.4-0.7-1.3-1.1-2.1-0.6C66.9,26.8,66.6,27.7,67.1,28.5"/>
		<path fill="#FAED24" d="M122.5,150l7.4-7.8c2.4-2.5,2.2-6.5-0.3-8.9l-5.1-2.2l-10.5,11.1c-2.1,2.3-2.1,5.9,0.3,8
			l0.1,0.1
			C116.7,152.5,120.4,152.4,122.5,150"/>
		<path fill="#F3C9A0" d="M124.1,137.3c-2,1.8-5.1,1.6-6.9-0.4l-16.5-18.2
			c-5.5-6.2-15.9-17.4-8.6-24.5l5.6-3.3l10-5.6l3.9,8.3
			c0,0-8.9,4.2-9.2,4.3c-6.4,3.4,2.8,11.3,6,15l16.1,17.8C126.3,132.6,126.1,135.6,124.1,137.3L124.1,137.3z"/>
		<path fill="#F3C9A0" d="M138.6,61.4L138.6,61.4C138.7,61.5,138.7,61.4,138.6,61.4L138.6,61.4z"/>
		<path fill="#F3C9A0" d="M138.6,61.4L138.6,61.4l-0.5-0.3C138.3,61.2,138.4,61.3,138.6,61.4"/>
		<path fill="#F3C9A0" d="M138.8,69.4l-0.8,0.4c-0.1,0.1-0.1,0.1-0.2,0.1L138.8,69.4z"/>
		<path fill="#F3C9A0" d="M138.7,61.4L138.7,61.4C138.7,61.5,138.7,61.5,138.7,61.4c0.3,0.1,0.4,0.2,0.5,0.2
			L138.7,61.4z"/>
		<path fill="#D92627" d="M111.8,82.9c-1.3,0.7-3.7,2.1-4.9,2.8l4.7,7.8c1.4-0.4,2.8-0.7,4.2-1.1
			c1.3-0.4,2.4-0.7,3.7-1.1l-5.1-9.8
			C113.4,82,112.6,82.5,111.8,82.9"/>
		<!-- shorts -->
		<path fill="#C2C459" d="M153.3,65.5c0-0.3-0.1-0.6-0.1-0.9c-0.8-5.8-4.7-10.7-9.5-13.9
			c-0.4-0.3-0.9-0.6-1.3-0.9l-4.6,12.8c2.1,0.7,3,2.3,2.3,4.5c-0.4,1.2-1.3,2.1-2.4,2.6
			c0.3-0.1,0.5-0.2,0.8-0.3c-8.3,3.8-16.5,7.7-24.5,12.1
			l5.1,9.8c0.2-0.1,0.4-0.1,0.5-0.2
			c6-1.7,12.1-3.4,17.9-5.9c5.3-2.2,11.9-5.4,14.3-10.9C153.1,71.7,153.6,68.5,153.3,65.5"/>
		<path fill="#F3C9A0" d="M88.3,60v16.7c0,4.7-3.8,8.5-8.6,8.5H64.2l0,0h-9.1
			c-2.8,0-4.9,2.2-4.9,4.9v4.6c0,2.4,2,4.4,4.5,4.4h6
			c2.1,0,3.7-1.6,3.7-3.7v-0.9h15.5c10,0,18.1-8,18.1-17.9V60C97.8,60,88.3,60,88.3,60z"/>
		<rect x="88.3" y="50.6" fill="#D92627" width="9.5" height="9.4"/>
		<path fill="#C2C459" d="M97.7,50.5h-9.5V42c0-3.8,2.9-8.6,9.5-8.6l7.7,1.8L97.7,50.5z"/>
	</g>
	<g id="hills" transform="scale(0.00901960784) translate(0 -918)">
		<!-- width: 23, height: 14.431372549, origin: 0, 14.431372549 from top-left -->
		<!-- taken from http://www.halosfun.com/wordpress/wp-content/themes/halos/public/images/home/svg/layer-back-hills.svg -->
		<path fill="url(#SVGID_1_)" d="M1687.993,658.887c0,0-64.981-12.112-103.839-12.188c-49.933-0.099-172.042,35.015-191.649,52.153
			c0,0,196.394,67.078,242.177,52.209c45.783-14.871,55.701-88.973,55.701-88.973"/>
		<path fill="url(#SVGID_2_)" d="M1497.588,735.405c26.396-14.055,63.347-34.851,110.502-54.453c1.471-0.668,2.87-1.289,4.178-1.85
			l0.081,0.09c39.664-16.29,80.235-30.186,105.875-34.782c64.099-11.486,130.956-0.008,130.956-0.008
			c49.725,5.223,193.252,99.121,304.843,99.121c111.591,0,122.447-35.815,194.897-34.981c72.45,0.832,142.106,70.89,216.552,41.645
			c57.314-22.516,144.541,1.963,162.71,32.234c0.015,0.023,0.033,0.044,0.048,0.067c31.928,47.132,44.632,136.835-209.813,136.835
			c-145.957,0-1518.864,1.52-1518.864,1.52C1142.092,920.843,1468.621,750.829,1497.588,735.405z"/>
		<path fill="url(#SVGID_3_)" d="M1554.528,693.625c-52.701-10.135-69.97-13.911-108.443-12.162
			c-22.297,1.013-53.619,1.453-93.241,12.162c-37.499,10.135-68.917,19.256-130.74,19.256c-56.083,0-102.939-17.086-142.822-30.017
			c-45.793-16.057-115.099-32.913-149.716-32.844c-38.858,0.076-103.839,12.188-103.839,12.188l-2.39,3.201
			c0,0,9.918,74.102,55.701,88.973c5.837,1.895,14.125,2.457,24.139,1.997c0.963,2.715,2,5.968,4.747,8.19
			c280.611,226.999,562.486,44.593,660.794,34.459C1667.025,788.892,1607.23,703.759,1554.528,693.625z"/>
		<path fill="url(#SVGID_4_)" d="M1012.433,735.405c-26.396-14.055-63.346-34.851-110.502-54.453c-1.471-0.668-2.87-1.289-4.178-1.85
			l-0.081,0.09c-39.664-16.29-80.235-30.186-105.875-34.782c-64.098-11.486-130.956-0.008-130.956-0.008
			c-49.725,5.223-193.252,99.121-304.843,99.121c-111.591,0-122.446-35.815-194.897-34.981
			c-72.451,0.832-142.107,70.89-216.552,41.645c-57.314-22.516-147.916,2.723-162.71,32.234c-0.015,0.023-0.033,0.044-0.048,0.067
			C-250.137,829.62-229.09,919.323-8.395,919.323c145.957,0,1518.864,1.52,1518.864,1.52
			C1367.93,920.843,1041.401,750.829,1012.433,735.405z"/>
		<path fill="url(#SVGID_5_)" d="M1569.345,677.636c-56.419-9.403-181.414-7.094-264.52,31.418
			c-83.106,38.513-270.601,210.806-422.625,209.792h1182.74c0,0-186.597-88.267-259.511-140.922
			C1732.517,725.27,1624.073,686.757,1569.345,677.636z"/>
		<path fill="#40AA15" d="M1586.574,702.654c0,4.2-27.805,4.2-27.805,0C1558.769,698.455,1586.574,698.455,1586.574,702.654z"/>
		<path fill="#40AA15" d="M1570.358,697.08c0,4.2-27.805,4.2-27.805,0C1542.554,692.881,1570.358,692.881,1570.358,697.08z"/>
		<path fill="#40AA15" d="M1549.075,690.348c0,3.497-23.144,3.497-23.144,0C1525.931,686.851,1549.075,686.851,1549.075,690.348z"/>
		<path fill="#40AA15" d="M1540.884,688.278c0,3.65-24.158,3.65-24.158,0C1516.726,684.627,1540.884,684.627,1540.884,688.278z"/>
		<path fill="#40AA15" d="M1527.202,684.224c0,3.65-24.158,3.65-24.158,0C1503.044,680.573,1527.202,680.573,1527.202,684.224z"/>
		<path fill="#40AA15" d="M1517.067,681.69c0,3.65-24.158,3.65-24.158,0C1492.909,678.04,1517.067,678.04,1517.067,681.69z"/>
		<path fill="#40B415" d="M1494.751,679.669c-0.141,3.665-27.825,2.601-27.685-1.065
			C1467.208,674.937,1494.892,676.002,1494.751,679.669C1494.699,681.028,1494.803,678.309,1494.751,679.669z"/>
		<g>
			<g>
				<path fill="#67BD62" d="M1505.416,633.998c5.096,7.319,8.052,16.547,8.194,25.44c0.034,2.099-0.509,22.119-4.882,22.119
					c-2.031,0-5.957,1.103-6.616-1.107c-1.729-5.799-2.817-11.841-3.219-17.877C1498.245,652.844,1499.752,642.202,1505.416,633.998z"
					/>
				<path fill="#3A8D52" d="M1504.664,681.561c0.478-4.526,0.907-9.125,0.757-13.68c-0.123-3.755-3.976-7.603-3.739-11.407
					c0.139,0.554,0.736,2.722,1.409,2.819c-0.021-2.049-0.463-4.897,0.282-6.835c-0.048,3.681-0.22,8.867,2.043,11.978
					c0.025-3.083,0.059-6.165,0.106-9.248c0.03-2.003,1.244-8.204,0.564-9.732c1.055,2.373,0.124,7.223,0.158,9.754
					c0.052,3.803,0.105,7.607,0.158,11.41c2.37-4.466-0.33-7.65,0.775-11.837c0.118,0.999,0.043,3.495,0.775,4.227
					c0.095-1.765,0.302-3.852-0.211-5.566c0.992,2.299,0.886,5.038,0.822,7.492c0.603-1.239,1.356-2.836,1.221-4.251
					c0.861,3.495-1.759,8.054-2.908,11.424c-1.329,3.897-0.91,9.434-0.322,13.456C1505.955,681.564,1505.244,681.695,1504.664,681.561
					z"/>
			</g>
			<g>
				<path fill="#67BD62" d="M1515.108,631.403c5.766,8.249,9.081,18.714,9.199,28.746c0.027,2.261-0.645,24.628-5.418,24.628
					c-1.977,0-6.771,1.133-7.417-1.001c-1.852-6.12-3.039-12.489-3.576-18.857C1506.937,653.531,1508.473,641.044,1515.108,631.403z"
					/>
				<path fill="#3A8D52" d="M1514.264,684.781c0.546-5.151,1.044-10.396,0.842-15.579c-0.159-4.079-4.448-8.414-4.189-12.576
					c0.155,0.622,0.827,3.055,1.582,3.163c-0.023-2.3-0.521-5.496,0.316-7.67c-0.056,4.13-0.245,9.952,2.293,13.442
					c0.03-3.668,0.07-7.336,0.128-11.004c0.033-2.091,1.324-8.719,0.623-10.296c1.268,2.851,0.147,8.691,0.189,11.739
					c0.055,4.004,0.111,8.009,0.167,12.013c1.13-2.096,1.694-4.504,1.74-6.88c-0.08-2.139-1.461-4.166-0.87-6.406
					c0.14,1.125,0.046,3.921,0.87,4.745c0.096-1.987,0.341-4.318-0.237-6.246c1.177,2.513,0.993,5.715,0.922,8.408
					c0.683-1.386,1.521-3.188,1.371-4.77c0.966,3.922-1.974,9.039-3.264,12.821c-1.491,4.373-1.022,10.588-0.362,15.101
					C1515.728,684.784,1514.891,684.958,1514.264,684.781z"/>
			</g>
			<g>
				<path fill="#67BD62" d="M1524.548,627.04c6.28,8.955,9.863,20.377,9.952,31.274c0.019,2.372-0.759,26.462-5.812,26.462
					c-1.902,0-7.401,1.115-8.015-0.891c-1.922-6.28-3.173-12.812-3.813-19.344C1515.617,651.845,1517.11,637.816,1524.548,627.04z"/>
				<path fill="#3A8D52" d="M1523.635,684.781c0.547-5.151,0.995-10.357,0.942-15.539c-0.052-5.023-4.871-9.971-4.562-14.916
					c0.216,0.683,0.866,3.3,1.711,3.422c-0.024-2.489-0.563-5.945,0.342-8.297c-0.063,4.467-0.264,10.767,2.48,14.541
					c0.032-3.951,0.076-7.903,0.138-11.854c0.036-2.277,1.439-9.469,0.675-11.188c1.376,3.096,0.159,9.436,0.205,12.746
					c0.06,4.316,0.12,8.631,0.18,12.947c1.222-2.268,1.832-4.872,1.882-7.442c-0.087-2.313-1.58-4.506-0.941-6.928
					c0.151,1.216,0.05,4.241,0.941,5.131c0.104-2.149,0.369-4.671-0.257-6.756c1.245,2.75,1.075,6.152,0.998,9.095
					c0.739-1.499,1.645-3.449,1.482-5.161c1.044,4.265-2.153,9.888-3.574,13.994c-1.607,4.644-1.05,11.414-0.348,16.209
					C1525.218,684.784,1524.314,684.971,1523.635,684.781z"/>
			</g>
			<g>
				<path fill="#67BD62" d="M1530.636,641.669c5.041,7.206,7.954,16.34,8.115,25.103c0.038,2.083-0.484,22.01-4.834,22.01
					c-2.012,0-5.902,1.093-6.555-1.097c-1.713-5.745-2.791-11.73-3.189-17.71C1523.53,660.304,1525.052,649.837,1530.636,641.669z"/>
				<path fill="#3A8D52" d="M1529.891,688.786c0.473-4.484,0.898-9.04,0.75-13.552c-0.122-3.72-3.939-7.532-3.705-11.3
					c0.137,0.549,0.73,2.697,1.396,2.792c-0.021-2.029-0.46-4.852,0.279-6.77c-0.048,3.646-0.217,8.783,2.024,11.865
					c0.025-3.054,0.058-6.107,0.104-9.161c0.03-1.984,1.232-8.128,0.558-9.641c1.046,2.349,0.123,7.156,0.157,9.662
					c0.052,3.768,0.104,7.536,0.157,11.304c2.348-4.424-0.327-7.578,0.767-11.726c0.117,0.989,0.043,3.463,0.768,4.188
					c0.094-1.748,0.3-3.817-0.21-5.514c0.983,2.277,0.878,4.991,0.815,7.422c0.597-1.227,1.343-2.81,1.21-4.211
					c0.853,3.462-1.742,7.979-2.881,11.317c-1.317,3.86-0.902,9.346-0.319,13.329C1531.17,688.788,1530.465,688.919,1529.891,688.786z
					"/>
			</g>
			<g>
				<path fill="#67BD62" d="M1543.293,631.901c6.39,9.111,10.035,20.732,10.125,31.819c0.059,7.23-0.7,14.949-3.12,21.811
					c-0.291,0.825-1.563,5.113-2.793,5.113c-2.799,0-7.465,1.447-8.359-1.586c-2.031-6.889-3.335-14.044-3.865-21.204
					C1534.378,655.64,1536.156,642.211,1543.293,631.901z"/>
				<path fill="#3A8D52" d="M1542.363,690.649c0.556-5.24,1.013-10.537,0.958-15.81c-0.053-5.111-4.957-10.145-4.642-15.176
					c0.219,0.695,0.881,3.358,1.741,3.481c-0.025-2.532-0.573-6.049,0.348-8.442c-0.064,4.545-0.268,10.955,2.524,14.795
					c0.032-4.02,0.077-8.041,0.14-12.061c0.036-2.313,1.464-9.639,0.686-11.383c1.338,3,0.156,9.157,0.2,12.361
					c0.063,4.593,0.127,9.187,0.191,13.78c1.244-2.307,1.865-4.957,1.915-7.571c-0.14-2.348-1.604-4.6-0.958-7.049
					c0.154,1.239,0.051,4.313,0.958,5.221c0.102-2.188,0.376-4.751-0.261-6.875c1.267,2.798,1.094,6.259,1.016,9.253
					c0.751-1.525,1.674-3.509,1.508-5.25c1.062,4.34-2.19,10.061-3.636,14.238c-1.636,4.725-1.068,11.614-0.354,16.492
					C1543.973,690.652,1543.054,690.842,1542.363,690.649z"/>
			</g>
			<g>
				<path fill="#67BD62" d="M1560.052,619.543c8.664,12.276,13.514,28.111,13.469,43.068c-0.029,9.394-1.008,19.342-4.151,28.258
					c-0.337,0.955-2.133,6.8-3.595,6.8c-3.422,0-10.057,1.859-11.164-1.862c-2.609-8.767-4.31-17.865-5.095-26.975
					C1548.08,652.173,1550.23,633.628,1560.052,619.543z"/>
				<path fill="#3A8D52" d="M1558.817,697.675c0.775-7.283,1.439-14.671,1.257-22c-0.099-3.985-2.694-7.038-3.549-10.95
					c-0.588-2.689-2.781-5.494-2.607-8.261c0.308,0.929,1.165,4.465,2.316,4.63c-0.033-3.366-0.762-8.047,0.464-11.227
					c-0.087,6.043-0.355,14.571,3.356,19.675c0.041-5.064,0.097-10.128,0.173-15.191c0.053-3.53,0.112-7.061,0.217-10.59
					c0.021-0.723,0.815-5.158,0.709-5.396c0.631,1.42,0.101,4.296,0.12,5.77c0.052,3.9,0.106,7.8,0.16,11.699
					c0.08,5.766,0.16,11.531,0.24,17.297c1.659-3.063,2.48-6.597,2.547-10.07c-0.284-3.104-2.125-6.152-1.273-9.375
					c0.21,1.651,0.067,5.734,1.273,6.944c0.135-2.911,0.5-6.319-0.347-9.143c1.778,3.616,1.453,8.419,1.351,12.307
					c0.986-2.048,2.227-4.654,2.006-6.983c0.815,3.331,0.46,7.281-2.045,9.837c-1.343,2.907-1.811,6.368-2.896,9.395
					c-2.171,6.056-1.284,15.372-0.367,21.638C1560.886,697.68,1559.851,697.677,1558.817,697.675z"/>
			</g>
			<g>
				<path fill="#67BD62" d="M1576.631,613.658c9.504,13.46,14.944,30.712,15.29,47.104c0.23,10.914-0.925,22.555-4.366,32.972
					c-0.371,1.123-2.608,8.71-4.371,8.71c-3.411,0-11.514,1.937-12.622-1.736c-3.18-10.539-5.194-21.522-6.022-32.494
					C1563.146,649.785,1565.73,629.194,1576.631,613.658z"/>
				<path fill="#3A8D52" d="M1575.227,702.452c0.848-7.951,1.539-15.993,1.447-23.994c-0.057-4.936-2.819-8.2-3.939-12.956
					c-0.739-3.137-3.276-6.705-3.076-9.884c0.357,1.059,1.321,5.074,2.631,5.262c-0.037-3.827-0.864-9.145,0.528-12.759
					c-0.105,6.865-0.4,16.564,3.813,22.361c0.048-5.967,0.114-11.933,0.207-17.899c0.06-3.881,0.126-7.762,0.244-11.642
					c0.023-0.771,0.899-5.665,0.799-5.891c0.678,1.523,0.111,4.624,0.132,6.206c0.061,4.582,0.125,9.164,0.188,13.745
					c0.09,6.52,0.181,13.039,0.271,19.559c1.896-3.469,2.819-7.507,2.895-11.443c-0.257-3.542-2.42-6.969-1.448-10.655
					c0.239,1.876,0.076,6.518,1.448,7.892c0.152-3.308,0.569-7.182-0.395-10.391c2.074,4.043,1.65,9.627,1.536,13.986
					c1.117-2.333,2.532-5.285,2.28-7.936c0.929,3.785,0.52,8.277-2.324,11.181c-1.56,3.303-2.068,7.293-3.316,10.745
					c-2.467,6.824-1.425,17.456-0.392,24.521C1577.579,702.457,1576.403,702.454,1575.227,702.452z"/>
			</g>
		</g>
		<g>
			<path fill="#3A8D52" d="M1484.056,679.844c0.761-1.225,1.481-4.812,1.073-6.24c-0.608-2.127-4.445-2.074-4.047-4.584
				c0.31,1.187,1.142,2.026,2.341,2.389c-0.338-1.117-0.057-2.183,0.78-2.73c-1.739,2.742,1.546,2.594,1.853,4.438
				c1.45-1.594,2.433-2.885,2.877-5.023c-0.182,1.164,0.069,1.765-0.536,2.975c1.121-0.671,1.543-2.489,1.609-3.121
				c0.33,2.207-1.87,2.606-1.951,4.145c1.955,0.547,3.661-1.026,4.096-2.877c0.146,0.098,0.293,0.195,0.439,0.292
				c-0.179,0.39-0.358,0.781-0.536,1.171c0.415-0.305,1.162-0.636,1.414-0.829c-0.99,0.867-2.022,1.683-3.023,2.536
				c2.426,1.193,4.38-0.505,5.705-2.194c0.106,3.759-2.427,4.657-5.413,3.072c-4.739-2.514-4.54,4.456-1.951,6.534
				C1487.265,680.214,1485.595,680.154,1484.056,679.844z M1494.394,673.75c0.839-0.454,1.263-1.593,1.316-2.487
				c-1.083,1.217-2.599,1.999-4.242,1.902C1492.191,673.717,1493.504,674.232,1494.394,673.75
				C1495.563,673.116,1493.223,674.384,1494.394,673.75z"/>
			<g>
				<path fill="#67BD62" d="M1480.618,656.733c-11.474,2.1-6.798,18.454,4.003,13.366
					C1492.911,666.195,1489.907,655.032,1480.618,656.733C1475.425,657.683,1489.452,655.115,1480.618,656.733z"/>
				<path fill="#67BD62" d="M1496.27,656.806c0.665,0.365,1.344,2.503,1.647,2.541c1.519,0.195,2.97,0.997,3.982,2.141
					c2.897,3.277,1.943,8.714-2.576,9.878c-4.622,1.191-10.419-3.105-10.218-7.956C1489.232,660.37,1492.387,654.669,1496.27,656.806
					C1497.65,657.564,1494.808,656.001,1496.27,656.806z"/>
				<path fill="#9ADF60" d="M1495.539,656.989c1.296-0.479,2.152,1.44,2.194,2.34c0.511,0.358,1.802,0.473,2.378,0.782
					c2.146,1.154,5.404,7.149,1.279,8.069c-2.252,0.499-5.103,0.416-5.924-2.232C1494.883,664.07,1492.617,658.067,1495.539,656.989
					C1496.4,656.67,1493.162,657.866,1495.539,656.989z"/>
				<path fill="#67BD62" d="M1495.758,658.634c3.337,0.923,1.859,3.453,3.844,4.35c2.771,1.253,2.702,6.021-0.882,5.634
					c-2.176,1.233-4.581,2.57-7.009-0.012c-1.741-1.851-4.378,0.97-7.036,0.219c-2.304-0.651-4.34,0.906-6.576-1.349
					c-2.921-2.945-0.078-7.518,3.813-7.112c2.288,0.239,1.624-0.358,3.749-1.428C1488.77,657.369,1492.516,657.737,1495.758,658.634
					C1497.565,659.134,1486.506,656.074,1495.758,658.634z"/>
				<path fill="#9ADF60" d="M1480.509,657.646c-3.042-0.234-6.558,4.421-4.203,6.991c2.158,2.354,7.146,2.205,8.287-1.093
					c0.28-0.81,1.334-1.352,1.726-2.201C1487.739,658.264,1482.21,657.777,1480.509,657.646
					C1478.545,657.495,1490.968,658.451,1480.509,657.646z"/>
				<path fill="#9ADF60" d="M1495.246,658.817c3.128,0.325,1.904,3.827,2.81,4.134c1.627,0.552,4.794,3.409,1.625,4.533
					c-1.557,0.552-2.754,2.135-4.69,1.609c-3.64-0.988-1.385-1.507-1.828-4.169c-1.165,4.911-12.189,1.619-8.119-2.743
					C1487.906,659.114,1490.94,658.371,1495.246,658.817C1496.485,658.945,1487.128,657.976,1495.246,658.817z"/>
				<path fill="#72C566" d="M1485.555,653.661c3.031-0.678,6.285,0.508,8.448,2.669c1.611,1.611,1.638,4.513-0.732,2.341
					c0.775,2.166-0.499,4.247-2.981,4.022c-2.761-0.251-1.764,0.019-4.494,0.463C1478.39,664.36,1479.101,655.105,1485.555,653.661
					C1489.651,652.745,1482.776,654.283,1485.555,653.661z"/>
				<path fill="#9ADF60" d="M1490.676,654.245c-4.173-1.622-9.269,5.055-5.002,5.87c1.845,0.353,1.208-0.629,2.642,0.672
					c1.991,1.806,5.564,0.98,4.955-2.116C1496.245,660.698,1493.339,655.283,1490.676,654.245
					C1489.426,653.759,1493.491,655.343,1490.676,654.245z"/>
			</g>
			<path fill="#008937" d="M1476.059,658.78c-6.961,7.314,3.205,16.68,10.447,10.24
				C1480.474,669.554,1471.766,666.525,1476.059,658.78z"/>
			<path fill="#008937" d="M1484.3,654.002c-7.016,1.277-3.881,11.727,2.828,8.68C1482.113,662.495,1478.126,656.565,1484.3,654.002z"
				/>
		</g>
	</g>
</svg>