<?xml version="1.0" encoding="UTF-8" standalone="no"?>
<svg xmlns="http://www.w3.org/2000/svg" xmlns:xlink="http://www.w3.org/1999/xlink">
	<g id="building" transform="translate(0 -192) scale(8)"> <!-- width="256" height="192" -->
		<path style="fill:#483e30" d="m26 4-10-4-10 4-6 4v2h2v10l8 4 6-3 6 3 8-4v-10h2v-2z"/>
		<path style="fill:#544838" d="m16 21v-9l-6 2v10z"/>
		<path style="fill:#5c2b1c" d="m16 0v12l4 2 6-10z"/>
		<path style="fill:#544838" d="m22 24v-10l8-4v10z"/>
		<path style="fill:#483e30" d="m16 12v2l4 2v-2z"/>
		<path style="fill:#6b3221" d="m16 0v12l-4 2-6-10z"/>
		<path style="fill:#544838" d="m16 14v-2l-4 2v2z"/>
		<path style="fill:#544838" d="m20 16v-2l6-10 6 4v2z"/>
		<path style="fill:#483e30" d="m10 24v-10l-8-4v10z"/>
		<path style="fill:#483e30" d="m12 16v-2l-6-10-6 4v2z"/>
		<path style="fill:#544838" d="m8 23v-6l-1-1.5-2-1-1 0.5-0.0000025 6z"/>
		<path style="fill:#483e30" d="m23 20.5v-4l2-1v4z"/>
		<path style="fill:#483e30" d="m27 18.5v-4l2-1v4z"/>
		<path style="fill:#544838" d="m7 12v-3l-0.5-1.25-1-0.5-0.5 0.75v3z"/>
		<path style="fill:#483e30" d="m25 12v-3l0.5-1.25 1-0.5 0.5 0.75v3z"/>
	</g>
	<g id="platform" transform="translate(-300 -90) scale(0.58123370729)"> <!-- width="600" height="120.006161077" -->
		<path fill="#530304" d="M109.282,74.572c0,0-57.868,37.285-70.653,55.476h82.171l68.834-55.476H109.282z"/>
		<polygon fill="#981B1E" points="125.52,74.572 60.071,130.047 99.348,130.047 164.789,74.572 "/>
		<polygon fill="#ED1C24" points="104.369,95.184 60.075,130.055 88.726,130.055 131.194,95.184 "/>
		<path fill="#F4858E" d="M103.323,96.003l-43.248,34.052H82.76c5.689-9.587,11.81-19.06,18.264-28.343
			C101.842,99.825,102.616,97.933,103.323,96.003"/>
		<path fill="#530304" d="M249.412,74.572c0,0,57.867,37.285,70.661,55.476h-82.179l-68.843-55.476H249.412z"/>
		<polygon fill="#981B1E" points="233.173,74.572 298.614,130.047 259.337,130.047 193.905,74.572 "/>
		<polygon fill="#ED1C24" points="254.317,95.184 298.61,130.055 269.959,130.055 227.492,95.184 "/>
		<path fill="#530304" d="M370.135,74.572c0,0-57.867,37.285-70.652,55.476h82.178l68.827-55.476H370.135z"/>
		<polygon fill="#981B1E" points="386.374,74.572 320.926,130.047 360.209,130.047 425.651,74.572 "/>
		<polygon fill="#ED1C24" points="365.223,95.184 320.93,130.055 349.581,130.055 392.055,95.184 "/>
		<path fill="#F4858E" d="M364.185,96.003l-43.255,34.052h22.691c5.683-9.587,11.811-19.06,18.265-28.343
			C362.698,99.825,363.47,97.933,364.185,96.003"/>
		<path fill="#530304" d="M510.266,74.572c0,0,57.871,37.285,70.664,55.476h-82.189l-68.827-55.476H510.266z"/>
		<polygon fill="#981B1E" points="494.028,74.572 559.48,130.047 520.192,130.047 454.759,74.572 "/>
		<polygon fill="#ED1C24" points="515.178,95.184 559.472,130.055 530.817,130.055 488.346,95.184 "/>
		<path fill="#530304" d="M630.99,74.572c0,0-57.87,37.285-70.649,55.476h82.175l68.835-55.476H630.99z"/>
		<polygon fill="#981B1E" points="647.228,74.572 581.792,130.047 621.08,130.047 686.508,74.572 "/>
		<polygon fill="#ED1C24" points="626.084,95.184 581.792,130.055 610.439,130.055 652.917,95.184 "/>
		<path fill="#F4858E" d="M625.032,96.003l-43.24,34.052h22.681c5.69-9.587,11.81-19.06,18.276-28.343
			C623.555,99.825,624.332,97.933,625.032,96.003"/>
		<path fill="#530304" d="M771.121,74.572c0,0,57.871,37.285,70.664,55.476h-82.182l-68.835-55.476H771.121z"/>
		<polygon fill="#981B1E" points="754.882,74.572 820.334,130.047 781.046,130.047 715.617,74.572 "/>
		<polygon fill="#ED1C24" points="776.033,95.184 820.327,130.055 791.671,130.055 749.201,95.184 "/>
		<path fill="#530304" d="M891.844,74.572c0,0-57.871,37.285-70.649,55.476h82.175l68.835-55.476H891.844z"/>
		<polygon fill="#981B1E" points="908.083,74.572 842.646,130.047 881.918,130.047 947.363,74.572 "/>
		<polygon fill="#ED1C24" points="886.939,95.184 842.646,130.055 871.293,130.055 913.764,95.184 "/>
		<path fill="#F4858E" d="M885.894,96.003l-43.248,34.052h22.681c5.689-9.587,11.81-19.06,18.275-28.343
			C884.41,99.825,885.186,97.933,885.894,96.003"/>
		<rect x="92.251" y="32.958" fill="#ED1C24" width="906.471" height="46.389"/>
		<rect x="92.251" y="32.55" fill="#F4858E" width="906.471" height="19.683"/>
		<line fill="none" stroke="#530304" stroke-width="18.1866" x1="92.251" y1="32.739" x2="998.722" y2="32.739"/>
		<line fill="none" stroke="#530304" stroke-width="18.1866" x1="92.251" y1="76.394" x2="998.722" y2="76.394"/>
		<rect x="92.251" y="127.126" fill="#ED1C24" width="906.471" height="46.392"/>
		<rect x="92.251" y="154.244" fill="#981B1E" width="906.471" height="19.683"/>
		<line fill="none" stroke="#530304" stroke-width="18.1866" x1="92.251" y1="173.734" x2="998.722" y2="173.734"/>
		<line fill="none" stroke="#530304" stroke-width="18.1866" x1="92.251" y1="130.079" x2="998.722" y2="130.079"/>
		<polygon fill="#ED1C24" points="95.181,158.45 130.051,114.148 130.051,142.803 95.181,185.282 "/>
		<path fill="#F4858E" d="M95.996,48.581l34.053,43.264V69.155c-9.584-5.693-19.063-11.809-28.344-18.275
			C99.813,50.069,97.925,49.289,95.996,48.581"/>
		<polygon fill="#530304" points="182.252,9.07 24.116,9.07 9.07,24.124 9.07,182.268 24.201,197.399 182.252,197.399 197.391,182.26
			197.391,24.208 "/>
		<polygon fill="none" stroke="#530304" stroke-width="18.1394" stroke-linecap="round" stroke-linejoin="round" points="
			182.252,9.07 24.116,9.07 9.07,24.124 9.07,182.268 24.201,197.399 182.252,197.399 197.391,182.26 197.391,24.208 "/>
		<polygon fill="#ED1C24" points="176.632,15.763 29.744,15.763 15.755,29.745 15.755,176.648 29.825,190.709 176.632,190.709
			190.703,176.64 190.703,29.833 "/>
		<polygon fill="#981B1E" points="190.703,176.594 15.755,176.594 29.817,190.709 176.632,190.709 "/>
		<polygon fill="#981B1E" points="176.586,15.763 176.586,190.709 190.703,176.64 190.703,29.833 "/>
		<polygon fill="#F4858E" points="29.867,190.709 29.867,15.767 15.759,29.749 15.759,176.64 "/>
		<polygon fill="#F4858E" points="176.632,15.763 29.744,15.763 15.755,29.878 190.703,29.878 "/>
		<path fill="#322F30" d="M163.308,103.239c0,33.183-26.894,60.077-60.077,60.077c-33.188,0-60.09-26.895-60.09-60.077
			c0-33.176,26.902-60.086,60.09-60.086C136.415,43.153,163.308,70.063,163.308,103.239"/>
		<path fill="#BACAD3" d="M151.792,103.239c0,26.816-21.747,48.553-48.561,48.553c-26.825,0-48.561-21.736-48.561-48.553
			c0-26.814,21.735-48.553,48.561-48.553C130.044,54.686,151.792,76.424,151.792,103.239"/>
		<path fill="#727D84" d="M46.543,40.02c0,3.583-2.906,6.496-6.478,6.496c-3.583,0-6.489-2.913-6.489-6.496s2.906-6.478,6.489-6.478
			C43.637,33.542,46.543,36.437,46.543,40.02"/>
		<path fill="#E1F4FD" d="M41.954,33.854l-1.888-0.315c-3.583,0-6.489,2.898-6.489,6.481c0,2.329,1.227,4.344,3.064,5.501
			C40.542,43.499,43.238,38.498,41.954,33.854"/>
		<path fill="#727D84" d="M172.904,40.02c0,3.583-2.906,6.496-6.489,6.496c-3.579,0-6.478-2.913-6.478-6.496s2.898-6.478,6.478-6.478
			C169.998,33.542,172.904,36.437,172.904,40.02"/>
		<path fill="#E1F4FD" d="M168.313,33.854l-1.898-0.315c-3.579,0-6.478,2.898-6.478,6.481c0,2.329,1.227,4.344,3.063,5.501
			C166.895,43.499,169.59,38.498,168.313,33.854"/>
		<path fill="#727D84" d="M172.904,166.252c0,3.584-2.906,6.49-6.489,6.49c-3.579,0-6.478-2.906-6.478-6.49
			c0-3.582,2.898-6.48,6.478-6.48C169.998,159.772,172.904,162.67,172.904,166.252"/>
		<path fill="#E1F4FD" d="M168.313,160.086l-1.898-0.314c-3.579,0-6.478,2.906-6.478,6.48c0,2.338,1.227,4.345,3.063,5.498
			C166.895,169.736,169.59,164.723,168.313,160.086"/>
		<path fill="#727D84" d="M46.543,166.252c0,3.584-2.906,6.49-6.478,6.49c-3.583,0-6.489-2.906-6.489-6.49
			c0-3.582,2.906-6.48,6.489-6.48C43.637,159.772,46.543,162.67,46.543,166.252"/>
		<path fill="#E1F4FD" d="M41.954,160.086l-1.888-0.314c-3.583,0-6.489,2.906-6.489,6.48c0,2.338,1.227,4.345,3.064,5.498
			C40.542,169.736,43.238,164.723,41.954,160.086"/>
		<path fill="#FFFFFF" d="M85.347,58.087c-17.968,7.116-30.673,24.649-30.673,45.151c0,2.198,0.165,4.348,0.442,6.466
			c3.583,4.183,8.446,6.458,14.5,6.458c17.414,0,27.044-16.026,29.108-34.859C99.944,70.236,95.842,58.718,85.347,58.087"/>
		<path fill="#727D84" d="M135.599,67.048c5.724,9.1,1.93,33.199-5.497,43.21c0,0-44.489-37.854-55.707-46.043l-3.817,2.722
			c0,0,60.604,65.141,60.692,67.116c0.166,3.668,0.204,5.09,0.204,5.09c-6.15-2.96-16.308-7.396-18.345-8.88
			c-8.715,10.472-19.405,16.376-32.964,15.716c6.858,3.705,14.716,5.812,23.069,5.812c26.813,0,48.561-21.744,48.561-48.549
			C151.795,88.857,145.529,75.936,135.599,67.048"/>
		<polygon fill="#FFFFFF" points="82.203,106.006 122.221,127.542 121.914,117.831 91.751,94.189 "/>
		<polygon fill="#322F30" points="148.493,129.756 137.794,143.372 58.849,77.128 69.551,63.532 "/>
		<polygon fill="#530304" points="1008.071,9.07 849.935,9.07 834.888,24.124 834.888,182.268 850.019,197.399 1008.071,197.399
			1023.217,182.26 1023.217,24.208 "/>
		<polygon fill="none" stroke="#530304" stroke-width="18.1394" stroke-linecap="round" stroke-linejoin="round" points="
			1008.071,9.07 849.935,9.07 834.888,24.124 834.888,182.268 850.019,197.399 1008.071,197.399
			1023.217,182.26 1023.217,24.208 "/>
		<polygon fill="#ED1C24" points="1002.451,15.763 855.563,15.763 841.585,29.745 841.585,176.648 855.639,190.709 1002.451,190.709
			1016.521,176.64 1016.521,29.833 "/>
		<polygon fill="#981B1E" points="1016.521,176.594 841.585,176.594 855.639,190.709 1002.451,190.709 "/>
		<polygon fill="#981B1E" points="1002.405,15.763 1002.405,190.709 1016.521,176.64 1016.521,29.833 "/>
		<polygon fill="#F4858E" points="855.694,190.709 855.694,15.767 841.585,29.749 841.585,176.64 "/>
		<polygon fill="#F4858E" points="1002.451,15.763 855.563,15.763 841.585,29.878 1016.521,29.878 "/>
		<path fill="#322F30" d="M989.126,103.239c0,33.183-26.894,60.077-60.077,60.077s-60.078-26.895-60.078-60.077
			c0-33.176,26.895-60.086,60.078-60.086S989.126,70.063,989.126,103.239"/>
		<path fill="#BACAD3" d="M977.61,103.239c0,26.816-21.743,48.553-48.561,48.553s-48.553-21.736-48.553-48.553
			c0-26.814,21.735-48.553,48.553-48.553S977.61,76.424,977.61,103.239"/>
		<path fill="#727D84" d="M872.362,40.02c0,3.583-2.906,6.496-6.481,6.496c-3.583,0-6.489-2.913-6.489-6.496s2.906-6.478,6.489-6.478
			C869.456,33.542,872.362,36.437,872.362,40.02"/>
		<path fill="#E1F4FD" d="M867.772,33.854l-1.892-0.315c-3.583,0-6.489,2.898-6.489,6.481c0,2.329,1.23,4.344,3.076,5.501
			C866.365,43.499,869.064,38.498,867.772,33.854"/>
		<path fill="#727D84" d="M998.722,40.02c0,3.583-2.906,6.496-6.489,6.496s-6.474-2.913-6.474-6.496s2.891-6.478,6.474-6.478
			S998.722,36.437,998.722,40.02"/>
		<path fill="#E1F4FD" d="M994.132,33.854l-1.899-0.315c-3.583,0-6.474,2.898-6.474,6.481c0,2.329,1.223,4.344,3.06,5.501
			C992.709,43.499,995.416,38.498,994.132,33.854"/>
		<path fill="#727D84" d="M998.722,166.252c0,3.584-2.906,6.49-6.489,6.49s-6.474-2.906-6.474-6.49c0-3.582,2.891-6.48,6.474-6.48
			S998.722,162.67,998.722,166.252"/>
		<path fill="#E1F4FD" d="M994.132,160.086l-1.899-0.314c-3.583,0-6.474,2.906-6.474,6.48c0,2.338,1.223,4.345,3.06,5.498
			C992.709,169.736,995.416,164.723,994.132,160.086"/>
		<path fill="#727D84" d="M872.362,166.252c0,3.584-2.906,6.49-6.481,6.49c-3.583,0-6.489-2.906-6.489-6.49
			c0-3.582,2.906-6.48,6.489-6.48C869.456,159.772,872.362,162.67,872.362,166.252"/>
		<path fill="#E1F4FD" d="M867.772,160.086l-1.892-0.314c-3.583,0-6.489,2.906-6.489,6.48c0,2.338,1.23,4.345,3.076,5.498
			C866.365,169.736,869.064,164.723,867.772,160.086"/>
		<path fill="#FFFFFF" d="M911.173,58.087c-17.976,7.116-30.669,24.649-30.669,45.151c0,2.198,0.153,4.348,0.431,6.466
			c3.582,4.183,8.457,6.458,14.5,6.458c17.422,0,27.048-16.026,29.108-34.859C925.758,70.236,921.668,58.718,911.173,58.087"/>
		<path fill="#727D84" d="M961.417,67.048c5.735,9.1,1.93,33.199-5.489,43.21c0,0-44.501-37.854-55.711-46.043l-3.813,2.722
			c0,0,60.601,65.141,60.686,67.116c0.161,3.668,0.207,5.09,0.207,5.09c-6.15-2.96-16.314-7.396-18.345-8.88
			c-8.719,10.472-19.405,16.376-32.96,15.716c6.857,3.705,14.708,5.812,23.058,5.812c26.817,0,48.561-21.744,48.561-48.549
			C977.61,88.857,971.351,75.936,961.417,67.048"/>
		<polygon fill="#FFFFFF" points="908.021,106.006 948.04,127.542 947.732,117.831 917.57,94.189 "/>
		<polygon fill="#322F30" points="974.311,129.756 963.617,143.372 884.671,77.128 895.374,63.532 "/>
	</g>
</svg>